<?xml version="1.0" encoding="UTF-8"?>
<svg version="1.1" xmlns="http://www.w3.org/2000/svg" width="236" height="236">
<path d="M0 0 C77.88 0 155.76 0 236 0 C236 77.88 236 155.76 236 236 C158.12 236 80.24 236 0 236 C0 158.12 0 80.24 0 0 Z " fill="#1B1919" transform="translate(0,0)"/>
<path d="M0 0 C0.33 0 0.66 0 1 0 C1 4.95 1 9.9 1 15 C5.52989488 12.28206307 6.70460587 11.47220989 9.25 7.3125 C10.14714317 5.86273514 11.05842134 4.42130702 12 3 C12.33 3 12.66 3 13 3 C13 6.96 13 10.92 13 15 C13.66 15 14.32 15 15 15 C15.18175781 14.41992188 15.36351562 13.83984375 15.55078125 13.2421875 C17.0418106 8.60852707 18.68333576 4.30237645 21 0 C24 1 24 1 24.9140625 2.70703125 C25.14867187 3.40183594 25.38328125 4.09664063 25.625 4.8125 C25.86476562 5.49957031 26.10453125 6.18664062 26.3515625 6.89453125 C26.97438681 8.91683429 27.50975812 10.94190909 28 13 C30.27426046 12.15570324 30.27426046 12.15570324 30.8515625 9.49609375 C31.23441406 7.98208984 31.23441406 7.98208984 31.625 6.4375 C31.88539062 5.42558594 32.14578125 4.41367188 32.4140625 3.37109375 C32.60742188 2.58863281 32.80078125 1.80617188 33 1 C33.66 1 34.32 1 35 1 C35.25394531 1.54269531 35.50789063 2.08539063 35.76953125 2.64453125 C36.11371094 3.35996094 36.45789063 4.07539062 36.8125 4.8125 C37.14894531 5.52019531 37.48539062 6.22789063 37.83203125 6.95703125 C38.91413325 9.05757461 38.91413325 9.05757461 40.63671875 10.63671875 C42 12 42 12 42 14 C42.66 14 43.32 14 44 14 C44 11.03 44 8.06 44 5 C49.17578125 9.39453125 49.17578125 9.39453125 51 11 C51.79277344 11.62841797 51.79277344 11.62841797 52.6015625 12.26953125 C54.71928732 14.89006783 55.22915055 17.62932319 56.0625 20.875 C56.23241455 21.53540283 56.4023291 22.19580566 56.57739258 22.8762207 C57.92846053 28.3005996 58.85972815 33.75218577 59.60546875 39.29296875 C59.94027351 41.5901935 60.38633717 43.7641328 61 46 C61.66 46 62.32 46 63 46 C63.04125 45.34 63.0825 44.68 63.125 44 C64.38331798 39.68576694 66.73069775 36.09571098 70 33 C71.65 32.67 73.3 32.34 75 32 C76.98 34.97 78.96 37.94 81 41 C80.67 39.35 80.34 37.7 80 36 C85.43459435 35.78632001 90.06064906 36.52581351 95.3125 37.875 C96.81338232 38.24908404 98.31468425 38.62148863 99.81640625 38.9921875 C100.89365967 39.25854004 100.89365967 39.25854004 101.99267578 39.53027344 C104.56143283 40.13137883 107.1478317 40.56956615 109.75 41 C113.72875171 41.77815722 116.19684304 42.93404707 119 46 C120.71942793 49.56221104 121.24137048 52.36282366 121.1953125 56.30078125 C121.18564453 57.76547852 121.18564453 57.76547852 121.17578125 59.25976562 C121.15064453 60.77086914 121.15064453 60.77086914 121.125 62.3125 C121.11597656 63.33923828 121.10695312 64.36597656 121.09765625 65.42382812 C121.07416201 67.94945899 121.04131131 70.4746081 121 73 C120.45005371 73.19698486 119.90010742 73.39396973 119.33349609 73.59692383 C118.25189209 73.9917395 118.25189209 73.9917395 117.1484375 74.39453125 C116.43349121 74.65339111 115.71854492 74.91225098 114.98193359 75.17895508 C112.68531927 76.13036108 110.92660801 77.44389353 109 79 C108.34 79 107.68 79 107 79 C107 79.66 107 80.32 107 81 C104.01017634 82.68532066 101.00709455 84.34570128 98 86 C97.42668945 86.31598145 96.85337891 86.63196289 96.26269531 86.95751953 C88.67432607 91.12450835 81.17493716 95.07625777 73 98 C81.96613694 96.37275192 90.41976099 92.92599696 98.76953125 89.36328125 C103.12732286 87.52426157 107.52361986 85.78672082 111.92504883 84.05517578 C114.41954081 83.06672291 116.85113783 82.07967271 119.21875 80.8125 C122.27154654 79.41999632 124.82729642 80.26347953 128 81 C130.19921875 82.2265625 130.19921875 82.2265625 132 84 C132.42578125 86.41796875 132.42578125 86.41796875 132.3125 89.1875 C132.28800781 90.08855469 132.26351562 90.98960937 132.23828125 91.91796875 C131.95094138 95.63454508 131.48824061 99.30445519 131 103 C130.42781738 103.15557373 129.85563477 103.31114746 129.26611328 103.47143555 C118.71603501 106.34116636 108.1701745 109.22332854 97.64135742 112.17016602 C91.32459447 113.92918398 84.98404373 115.59356165 78.63012695 117.21313477 C68.15100061 119.68744523 68.15100061 119.68744523 59 125 C58.030625 125.53625 57.06125 126.0725 56.0625 126.625 C52.41966816 128.66624198 48.99193202 130.99859266 45.5625 133.375 C44.71051025 133.96522949 44.71051025 133.96522949 43.84130859 134.56738281 C40.71572193 136.75087601 37.67787606 139.01106635 34.6875 141.375 C27.11082061 147.04569559 20.3203768 147.41941696 11 147 C11 146.34 11 145.68 11 145 C10.46890625 144.7421875 9.9378125 144.484375 9.390625 144.21875 C6.46166356 142.72555397 3.60618218 141.12816182 0.75 139.5 C-0.32765625 138.8915625 -1.4053125 138.283125 -2.515625 137.65625 C-3.33546875 137.1096875 -4.1553125 136.563125 -5 136 C-5 135.34 -5 134.68 -5 134 C-6.06927734 133.63648438 -6.06927734 133.63648438 -7.16015625 133.265625 C-10.40182043 131.82092184 -12.71409959 130.02143183 -15.4375 127.75 C-16.34371094 127.00234375 -17.24992187 126.2546875 -18.18359375 125.484375 C-19.11300781 124.66453125 -20.04242188 123.8446875 -21 123 C-21.5470459 122.57799316 -22.0940918 122.15598633 -22.65771484 121.72119141 C-26.0995649 118.81939985 -27.39120001 116.71067104 -27.796875 112.1796875 C-27.81268627 110.41145999 -27.79631506 108.64269156 -27.75 106.875 C-27.77320313 105.98167969 -27.79640625 105.08835937 -27.8203125 104.16796875 C-27.79748706 101.62293223 -27.67617995 99.45449342 -27 97 C-23.95256065 94.23488474 -22.21836917 93.10594515 -18.125 92.75 C-17.42375 92.8325 -16.7225 92.915 -16 93 C-15.87625 92.360625 -15.7525 91.72125 -15.625 91.0625 C-15.41875 90.381875 -15.2125 89.70125 -15 89 C-14.01 88.505 -14.01 88.505 -13 88 C-13.55429688 87.55269531 -14.10859375 87.10539062 -14.6796875 86.64453125 C-15.76636719 85.73767578 -15.76636719 85.73767578 -16.875 84.8125 C-17.59429687 84.22082031 -18.31359375 83.62914062 -19.0546875 83.01953125 C-23.14289383 78.77534918 -23.24703806 74.45231503 -23.4375 68.75 C-23.70461806 62.8781604 -24.35297132 57.2141399 -25.4375 51.4375 C-26.47184597 45.92815353 -27.43375836 40.43061376 -28.1875 34.875 C-28.34605469 33.71742187 -28.50460938 32.55984375 -28.66796875 31.3671875 C-29.016302 27.8346785 -29.29701167 24.54261747 -29 21 C-27.53125 19.57421875 -27.53125 19.57421875 -25.5 18.6875 C-20.57671135 16.08982899 -17.85627638 12.42181863 -14.56640625 8.01171875 C-14.04949219 7.34785156 -13.53257813 6.68398437 -13 6 C-12.67 6 -12.34 6 -12 6 C-12 8.97 -12 11.94 -12 15 C-13.98 15.66 -15.96 16.32 -18 17 C-14.43928688 18.04882391 -10.94472103 18.30386953 -7.25 18.5625 C-6.07953125 18.64628906 -4.9090625 18.73007813 -3.703125 18.81640625 C-2.36507812 18.90728516 -2.36507812 18.90728516 -1 19 C-1 18.34 -1 17.68 -1 17 C-3.97 16.34 -6.94 15.68 -10 15 C-8.53345118 12.80017677 -7.06660866 10.60056332 -5.59765625 8.40234375 C-4.63972426 6.96193257 -3.68730122 5.51780095 -2.74609375 4.06640625 C-1.85482632 2.69497261 -0.93099993 1.34477767 0 0 Z " fill="#89433B" transform="translate(85,63)"/>
<path d="M0 0 C0 0.66 0 1.32 0 2 C0.99 2 1.98 2 3 2 C4.6875 3.3125 4.6875 3.3125 6 5 C6 5.99 6 6.98 6 8 C6.99 8 7.98 8 9 8 C10.37868281 9.62935241 11.71274093 11.29749607 13 13 C13.99 13.495 13.99 13.495 15 14 C15 14.66 15 15.32 15 16 C15.66 16 16.32 16 17 16 C17 16.66 17 17.32 17 18 C17.99 18 18.98 18 20 18 C20 34.5 20 51 20 68 C-42.04 68 -104.08 68 -168 68 C-168 31 -168 31 -165 26 C-164.690625 25.01 -164.38125 24.02 -164.0625 23 C-162.88209921 19.66710365 -161.41456192 17.56547204 -159 15 C-157 15 -157 15 -154.5625 17.3125 C-153.15903458 18.78442715 -151.75889179 20.25965499 -150.375 21.75 C-148.90383382 23.25659086 -148.90383382 23.25659086 -146 24 C-146 24.66 -146 25.32 -146 26 C-145.38125 26.268125 -144.7625 26.53625 -144.125 26.8125 C-142 28 -142 28 -140 31 C-139.0409375 31.2165625 -139.0409375 31.2165625 -138.0625 31.4375 C-136 32 -136 32 -134.625 33.875 C-132.44503137 36.72572821 -130.27383054 37.51189521 -127 39 C-126.25363281 39.42796875 -125.50726563 39.8559375 -124.73828125 40.296875 C-118.89336287 43.56342279 -113.72372988 45.35604636 -107 44 C-104.52047083 42.7032827 -104.52047083 42.7032827 -102 41 C-99.940701 39.765478 -97.87809376 38.53646053 -95.8125 37.3125 C-94.76707031 36.68988281 -93.72164063 36.06726563 -92.64453125 35.42578125 C-90 34 -90 34 -88 34 C-88 33.34 -88 32.68 -88 32 C-87.154375 31.62875 -86.30875 31.2575 -85.4375 30.875 C-82.51207348 29.27931281 -80.98047008 28.07868304 -78.6875 25.8125 C-75.79963093 23.19010768 -73.96190588 22.60666424 -70.0625 22.625 C-68.70590701 22.72012004 -67.34984171 22.83471326 -66 23 C-66 22.34 -66 21.68 -66 21 C-66.99 21 -67.98 21 -69 21 C-69 20.34 -69 19.68 -69 19 C-63.51986736 17.04280977 -58.03137194 15.48184982 -52.375 14.125 C-47.07951725 12.84937376 -41.96010914 11.36501078 -36.8125 9.5625 C-29.72154032 7.11317064 -22.5452242 5.35644076 -15.23168945 3.69946289 C-10.34721968 2.58941917 -4.92020229 0 0 0 Z " fill="#2C2B32" transform="translate(216,168)"/>
<path d="M0 0 C0.33 0 0.66 0 1 0 C1 4.95 1 9.9 1 15 C5.52989488 12.28206307 6.70460587 11.47220989 9.25 7.3125 C10.14714317 5.86273514 11.05842134 4.42130702 12 3 C12.33 3 12.66 3 13 3 C13 6.96 13 10.92 13 15 C13.66 15 14.32 15 15 15 C15.18175781 14.41992188 15.36351562 13.83984375 15.55078125 13.2421875 C17.0418106 8.60852707 18.68333576 4.30237645 21 0 C24 1 24 1 24.9140625 2.70703125 C25.14867187 3.40183594 25.38328125 4.09664063 25.625 4.8125 C25.86476562 5.49957031 26.10453125 6.18664062 26.3515625 6.89453125 C26.97438681 8.91683429 27.50975812 10.94190909 28 13 C30.27426046 12.15570324 30.27426046 12.15570324 30.8515625 9.49609375 C31.23441406 7.98208984 31.23441406 7.98208984 31.625 6.4375 C31.88539062 5.42558594 32.14578125 4.41367188 32.4140625 3.37109375 C32.60742188 2.58863281 32.80078125 1.80617188 33 1 C33.66 1 34.32 1 35 1 C35.25394531 1.54269531 35.50789063 2.08539063 35.76953125 2.64453125 C36.11371094 3.35996094 36.45789063 4.07539062 36.8125 4.8125 C37.14894531 5.52019531 37.48539062 6.22789063 37.83203125 6.95703125 C38.91413325 9.05757461 38.91413325 9.05757461 40.63671875 10.63671875 C42 12 42 12 42 14 C42.66 14 43.32 14 44 14 C44 11.03 44 8.06 44 5 C49.17578125 9.39453125 49.17578125 9.39453125 51 11 C51.79277344 11.62841797 51.79277344 11.62841797 52.6015625 12.26953125 C54.71928732 14.89006783 55.22915055 17.62932319 56.0625 20.875 C56.23241455 21.53540283 56.4023291 22.19580566 56.57739258 22.8762207 C57.92846053 28.3005996 58.85972815 33.75218577 59.60546875 39.29296875 C59.94027351 41.5901935 60.38633717 43.7641328 61 46 C61.99 46 62.98 46 64 46 C64.33 45.01 64.66 44.02 65 43 C67.07717042 46.42122186 67.07717042 46.42122186 66.75 48.875 C66.37875 49.926875 66.37875 49.926875 66 51 C65.649375 52.0725 65.29875 53.145 64.9375 54.25 C64.4734375 55.61125 64.4734375 55.61125 64 57 C67.93673644 55.68775452 70.22719294 54.08089673 73 51 C74.485 51.495 74.485 51.495 76 52 C74.76380146 56.72003078 73.10999526 61.13146784 69 64 C65.65975189 64.78263087 62.42418894 64.98670218 59 65 C58.67 67.31 58.34 69.62 58 72 C58.53625 71.01 59.0725 70.02 59.625 69 C60.40875 68.01 61.1925 67.02 62 66 C65.1484375 65.8125 65.1484375 65.8125 68 66 C69.32961133 70.75083348 69.55773221 74.28257754 68 79 C61.59355763 85.73729151 51.979456 91.60057159 43 94 C43 94.66 43 95.32 43 96 C41.27281484 96.96189997 39.54315942 97.91936508 37.8125 98.875 C36.36810547 99.67550781 36.36810547 99.67550781 34.89453125 100.4921875 C30.63149097 102.71288055 27.86209634 104 23 104 C22.67 102.68 22.34 101.36 22 100 C27.89741187 96.94253032 33.73126302 94.20566671 40 92 C36.5157809 92.61431468 33.38358489 93.51720814 30.09375 94.8125 C29.18496094 95.16570312 28.27617188 95.51890625 27.33984375 95.8828125 C26.40269531 96.25148438 25.46554688 96.62015625 24.5 97 C22.63689676 97.7329402 20.77235405 98.46223403 18.90625 99.1875 C18.08447266 99.51105469 17.26269531 99.83460938 16.41601562 100.16796875 C9.93396085 102.40026894 9.93396085 102.40026894 5.80078125 100.62890625 C4.62784401 99.95758044 3.46539153 99.26769588 2.3125 98.5625 C1.69890625 98.19922607 1.0853125 97.83595215 0.453125 97.46166992 C-5.08901494 94.10413395 -10.07349421 90.20201964 -15 86 C-15.61875 85.525625 -16.2375 85.05125 -16.875 84.5625 C-20.25550323 81.9621129 -21.74357138 80.05099633 -23 76 C-23.21944318 73.58890277 -23.35667961 71.16971345 -23.4375 68.75 C-23.70461806 62.8781604 -24.35297132 57.2141399 -25.4375 51.4375 C-26.47184597 45.92815353 -27.43375836 40.43061376 -28.1875 34.875 C-28.34605469 33.71742187 -28.50460938 32.55984375 -28.66796875 31.3671875 C-29.016302 27.8346785 -29.29701167 24.54261747 -29 21 C-27.53125 19.57421875 -27.53125 19.57421875 -25.5 18.6875 C-20.57671135 16.08982899 -17.85627638 12.42181863 -14.56640625 8.01171875 C-14.04949219 7.34785156 -13.53257813 6.68398437 -13 6 C-12.67 6 -12.34 6 -12 6 C-12 8.97 -12 11.94 -12 15 C-13.98 15.66 -15.96 16.32 -18 17 C-14.43928688 18.04882391 -10.94472103 18.30386953 -7.25 18.5625 C-6.07953125 18.64628906 -4.9090625 18.73007813 -3.703125 18.81640625 C-2.36507812 18.90728516 -2.36507812 18.90728516 -1 19 C-1 18.34 -1 17.68 -1 17 C-3.97 16.34 -6.94 15.68 -10 15 C-8.53345118 12.80017677 -7.06660866 10.60056332 -5.59765625 8.40234375 C-4.63972426 6.96193257 -3.68730122 5.51780095 -2.74609375 4.06640625 C-1.85482632 2.69497261 -0.93099993 1.34477767 0 0 Z " fill="#C8B195" transform="translate(85,63)"/>
<path d="M0 0 C1.64936913 0.78427352 3.29441127 1.57765259 4.9375 2.375 C5.85402344 2.81585938 6.77054687 3.25671875 7.71484375 3.7109375 C10 5 10 5 11 7 C13.34038186 8.13102526 13.34038186 8.13102526 16.0625 9.125 C16.98160156 9.47820313 17.90070313 9.83140625 18.84765625 10.1953125 C19.55792969 10.46085937 20.26820312 10.72640625 21 11 C20.505 10.01 20.505 10.01 20 9 C19.93049459 7.45976004 19.91547643 5.91665012 19.9375 4.375 C19.94652344 3.55773437 19.95554687 2.74046875 19.96484375 1.8984375 C19.97644531 1.27195312 19.98804687 0.64546875 20 0 C22.97703018 2.77171776 24.94223867 5.51075252 27 9 C27.556875 9.556875 28.11375 10.11375 28.6875 10.6875 C29.120625 11.120625 29.55375 11.55375 30 12 C30 12.66 30 13.32 30 14 C30.66 14 31.32 14 32 14 C31.01 12.515 31.01 12.515 30 11 C30.34041045 7.68099815 31.11831477 4.77300981 33 2 C34.32 1.67 35.64 1.34 37 1 C37.99 5.455 37.99 5.455 39 10 C43.12414757 11.03103689 43.9841142 10.94701684 47.75 9.5625 C48.54921875 9.27503906 49.3484375 8.98757813 50.171875 8.69140625 C50.77515625 8.46324219 51.3784375 8.23507812 52 8 C50.38731308 10.71224618 48.75098126 13.37352812 47 16 C55.415 15.505 55.415 15.505 64 15 C61 19 61 19 58 20 C57.67 20.66 57.34 21.32 57 22 C62.33835539 23.92471317 67.34979382 25.39891424 73 26 C72.67 26.66 72.34 27.32 72 28 C69.6859378 28.73075648 67.35171131 29.40138258 65 30 C67.97 29.67 70.94 29.34 74 29 C72.71034824 30.37562854 71.37310707 31.70766393 70 33 C69.34 33 68.68 33 68 33 C68 33.99 68 34.98 68 36 C72.29 36 76.58 36 81 36 C80 39 80 39 77.0625 40.6875 C74 42 74 42 72 42 C72 42.99 72 43.98 72 45 C72.69867188 45.20496094 73.39734375 45.40992188 74.1171875 45.62109375 C75.02726563 45.89050781 75.93734375 46.15992188 76.875 46.4375 C77.77992188 46.70433594 78.68484375 46.97117188 79.6171875 47.24609375 C82 48 82 48 84 49 C84 49.66 84 50.32 84 51 C79.05 51.495 79.05 51.495 74 52 C76.31 52.33 78.62 52.66 81 53 C80.67 53.66 80.34 54.32 80 55 C77.36 55 74.72 55 72 55 C72.433125 55.62648437 72.86625 56.25296875 73.3125 56.8984375 C73.869375 57.71570313 74.42625 58.53296875 75 59.375 C75.556875 60.18710938 76.11375 60.99921875 76.6875 61.8359375 C78 64 78 64 78 66 C76.02 66 74.04 66 72 66 C73.32 66.99 74.64 67.98 76 69 C74.02 69 72.04 69 70 69 C70.66 70.65 71.32 72.3 72 74 C69.5 72.875 69.5 72.875 67 71 C66.6875 67.8125 66.6875 67.8125 67 65 C66.34 65 65.68 65 65 65 C65 68.3 65 71.6 65 75 C60.125 73.25 60.125 73.25 59 71 C58.93003986 69.29297265 58.91559846 67.58331997 58.9375 65.875 C58.94652344 64.96492188 58.95554687 64.05484375 58.96484375 63.1171875 C58.97644531 62.41851562 58.98804688 61.71984375 59 61 C58.34 61 57.68 61 57 61 C57 62.65 57 64.3 57 66 C56.34 66 55.68 66 55 66 C55.495 69.465 55.495 69.465 56 73 C51.46321158 68.98170169 48.54222705 64.5063556 46 59 C46 58.34 46 57.68 46 57 C45.34 57 44.68 57 44 57 C44.2165625 57.77085938 44.433125 58.54171875 44.65625 59.3359375 C44.9346875 60.33882812 45.213125 61.34171875 45.5 62.375 C45.7784375 63.37273437 46.056875 64.37046875 46.34375 65.3984375 C47 68 47 68 47 70 C41.85599584 68.63835184 38.8743952 65.3115928 36 61 C35.328125 58.7734375 35.328125 58.7734375 35 57 C34.34 57 33.68 57 33 57 C32.67 56.01 32.34 55.02 32 54 C31.34 53.67 30.68 53.34 30 53 C30.165 53.680625 30.33 54.36125 30.5 55.0625 C31.07089059 58.4164822 31.06659023 61.60389805 31 65 C27.66488612 62.0098979 25.78478881 59.10501426 24 55 C24 54.34 24 53.68 24 53 C23.01 53 22.02 53 21 53 C20.67 55.31 20.34 57.62 20 60 C19.34 60 18.68 60 18 60 C18 56.7 18 53.4 18 50 C17.34 50 16.68 50 16 50 C16 52.97 16 55.94 16 59 C13.49701566 56.06171403 12.53069061 53.82097239 12 50 C11.01 50 10.02 50 9 50 C8.896875 51.175625 8.79375 52.35125 8.6875 53.5625 C8.17085042 57.82485903 6.8491639 61.14087534 5 65 C4.67 65 4.34 65 4 65 C4 61.04 4 57.08 4 53 C1.33007837 54.33496082 0.86415343 55.87150924 -0.5 58.5 C-2.77777778 62.88888889 -2.77777778 62.88888889 -5 64 C-4.32829194 60.1936543 -3.27253436 56.64793184 -2 53 C-2.66 53 -3.32 53 -4 53 C-4.66 55.64 -5.32 58.28 -6 61 C-6.66 61 -7.32 61 -8 61 C-8 57.04 -8 53.08 -8 49 C-8.66 49 -9.32 49 -10 49 C-10 50.32 -10 51.64 -10 53 C-10.66 53 -11.32 53 -12 53 C-12.26683594 53.72574219 -12.53367188 54.45148437 -12.80859375 55.19921875 C-13.99364672 57.98506458 -15.37139441 60.30700449 -17.0625 62.8125 C-17.58972656 63.60269531 -18.11695313 64.39289063 -18.66015625 65.20703125 C-19.10230469 65.79871094 -19.54445312 66.39039062 -20 67 C-20.33 67 -20.66 67 -21 67 C-21 63.04 -21 59.08 -21 55 C-21.53625 56.010625 -22.0725 57.02125 -22.625 58.0625 C-24.94071903 62.14416304 -27.84783981 65.54313099 -31 69 C-32 66 -32 66 -32 63 C-32.99 63.99 -32.99 63.99 -34 65 C-34.33 63.02 -34.66 61.04 -35 59 C-35.03738281 59.66386719 -35.07476562 60.32773438 -35.11328125 61.01171875 C-35.7806841 69.97585513 -35.7806841 69.97585513 -39 74 C-39.33 74 -39.66 74 -40 74 C-40 71.69 -40 69.38 -40 67 C-41.65 68.32 -43.3 69.64 -45 71 C-44.45144652 66.428721 -43.58255197 62.32564205 -42 58 C-42.99 58.495 -42.99 58.495 -44 59 C-44.58808269 60.76451857 -44.58808269 60.76451857 -44.9296875 62.89453125 C-45.08566406 63.68537109 -45.24164063 64.47621094 -45.40234375 65.29101562 C-45.71506224 66.95927832 -46.02244061 68.62855173 -46.32421875 70.29882812 C-47.26431317 75.01076478 -47.99696687 77.9432906 -52 81 C-51.49287967 77.28111761 -50.88391785 74.26545761 -49 71 C-49.79664063 71.34224609 -49.79664063 71.34224609 -50.609375 71.69140625 C-51.66898438 72.12259766 -51.66898438 72.12259766 -52.75 72.5625 C-53.44609375 72.85253906 -54.1421875 73.14257812 -54.859375 73.44140625 C-57.30012784 74.07831803 -58.6403655 73.80248831 -61 73 C-60.43410156 72.52949219 -59.86820313 72.05898437 -59.28515625 71.57421875 C-58.18494141 70.64029297 -58.18494141 70.64029297 -57.0625 69.6875 C-55.96615234 68.76517578 -55.96615234 68.76517578 -54.84765625 67.82421875 C-52.76179634 66.04024481 -52.76179634 66.04024481 -52 63 C-55.6208201 61.98617037 -59.27811418 61.50102309 -63 61 C-63 60.34 -63 59.68 -63 59 C-61.3203125 57.7109375 -61.3203125 57.7109375 -59.125 56.375 C-58.40570313 55.92898437 -57.68640625 55.48296875 -56.9453125 55.0234375 C-55 54 -55 54 -53 54 C-53 53.01 -53 52.02 -53 51 C-56.63 50.67 -60.26 50.34 -64 50 C-64 49.34 -64 48.68 -64 48 C-62.58774074 47.32404685 -61.16997095 46.65959941 -59.75 46 C-58.96109375 45.62875 -58.1721875 45.2575 -57.359375 44.875 C-55 44 -55 44 -51 44 C-51.18415432 41.05908413 -51.18415432 41.05908413 -52 38 C-53.95163118 36.56362302 -53.95163118 36.56362302 -56 36 C-56 35.34 -56 34.68 -56 34 C-46.58997722 31.70387244 -46.58997722 31.70387244 -42 32 C-42.75150023 28.72226496 -42.75150023 28.72226496 -46 27 C-46 26.34 -46 25.68 -46 25 C-46.66 25 -47.32 25 -48 25 C-48 24.34 -48 23.68 -48 23 C-48.66 23 -49.32 23 -50 23 C-50 22.34 -50 21.68 -50 21 C-44.06 21 -38.12 21 -32 21 C-33.7215046 16.69623851 -35.18072743 14.47710284 -38 11 C-38 10.34 -38 9.68 -38 9 C-34.13544046 9.84903202 -30.46191952 11.21579749 -26.75 12.5625 C-25.77546875 12.91344727 -25.77546875 12.91344727 -24.78125 13.27148438 C-23.18687622 13.84592787 -21.59335233 14.4227293 -20 15 C-20 13.02 -20 11.04 -20 9 C-17 12.75 -17 12.75 -17 15 C-16.34 15 -15.68 15 -15 15 C-15.495 14.13375 -15.99 13.2675 -16.5 12.375 C-18.0477761 8.89250377 -18.26802896 6.75240542 -18 3 C-17.01 3.33 -16.02 3.66 -15 4 C-15 4.66 -15 5.32 -15 6 C-14.443125 6.12375 -13.88625 6.2475 -13.3125 6.375 C-10.77885636 7.05976855 -8.42078968 7.99133763 -6 9 C-6.495 7.515 -6.495 7.515 -7 6 C-6.4225 6.309375 -5.845 6.61875 -5.25 6.9375 C-2.78094132 8.19285032 -2.78094132 8.19285032 1 9 C0.505 4.545 0.505 4.545 0 0 Z " fill="#AC8D7E" transform="translate(96,7)"/>
<path d="M0 0 C0.2371875 0.62003906 0.474375 1.24007812 0.71875 1.87890625 C2.34756891 4.5753961 3.55279394 4.92556374 6.5 5.9375 C11.88614948 7.90823399 16.91420451 10.35971468 22 13 C20.48390378 17.25454501 17.78753088 18.6819539 14 20.9375 C13.4220166 21.28377441 12.8440332 21.63004883 12.24853516 21.98681641 C7.9408951 24.53531549 3.54269694 26.84516391 -0.9765625 28.9921875 C-3.22441979 30.05892502 -3.22441979 30.05892502 -6 32 C-6.99 32 -7.98 32 -9 32 C-9 32.66 -9 33.32 -9 34 C-10.051875 34.474375 -11.10375 34.94875 -12.1875 35.4375 C-16.66701001 37.66939622 -20.63831554 40.47416662 -24.71850586 43.35791016 C-37.11717407 52.04921168 -49.39820593 59.33731465 -64.32983398 62.4309082 C-68.78950124 63.42200591 -71.85112368 64.63958688 -75 68 C-75.59869338 70.35011728 -75.59869338 70.35011728 -75.3125 72.75 C-75.26738281 73.54921875 -75.22226563 74.3484375 -75.17578125 75.171875 C-75.11777344 75.77515625 -75.05976562 76.3784375 -75 77 C-72.35892646 74.53258609 -71.20358597 72.42559084 -70 69 C-61.69377787 69.34826927 -61.69377787 69.34826927 -58.9375 71.9375 C-58 74 -58 74 -58 76 C-56.9275 75.525625 -55.855 75.05125 -54.75 74.5625 C-52.19160135 73.46233668 -49.74164983 72.54832997 -47 72 C-47 72.66 -47 73.32 -47 74 C-48.093125 74.53625 -49.18625 75.0725 -50.3125 75.625 C-54.04467844 77.72529475 -55.44260141 79.969086 -57 84 C-54.32752366 86.34287418 -54.32752366 86.34287418 -51 87 C-51 87.66 -51 88.32 -51 89 C-50.01 88.71125 -49.02 88.4225 -48 88.125 C-44.02250133 86.98624782 -40.01769007 85.98680107 -36 85 C-36 84.34 -36 83.68 -36 83 C-35.34 83 -34.68 83 -34 83 C-34 82.34 -34 81.68 -34 81 C-30.53846154 78 -30.53846154 78 -28 78 C-28 77.34 -28 76.68 -28 76 C-26.02 75.67 -24.04 75.34 -22 75 C-22 74.01 -22 73.02 -22 72 C-19.50399697 71.00947453 -17.00395203 70.03255943 -14.5 69.0625 C-13.80390625 68.78470703 -13.1078125 68.50691406 -12.390625 68.22070312 C-7.55808233 66.36375386 -3.15932112 65.45899366 2 65 C2 64.34 2 63.68 2 63 C3.725227 62.32320342 5.45538939 61.65898 7.1875 61 C8.15042969 60.62875 9.11335938 60.2575 10.10546875 59.875 C12.92182358 59.02363228 15.08164439 58.82927353 18 59 C18 58.34 18 57.68 18 57 C20.8634971 55.69841041 23.23604234 54.96940192 26.375 54.5625 C30.3300306 53.94878835 33.33312557 52.58054932 37 51 C39.29305967 50.42278153 41.59327426 49.94395361 43.91015625 49.47265625 C46.39972855 48.9095941 48.6761085 48.04949939 51 47 C50.67 50.3 50.34 53.6 50 57 C48.62070313 57.37511719 47.24140625 57.75023437 45.8203125 58.13671875 C36.08600855 60.78661744 26.35655856 63.45104585 16.64135742 66.17016602 C10.32459447 67.92918398 3.98404373 69.59356165 -2.36987305 71.21313477 C-12.84899939 73.68744523 -12.84899939 73.68744523 -22 79 C-22.969375 79.53625 -23.93875 80.0725 -24.9375 80.625 C-28.58033184 82.66624198 -32.00806798 84.99859266 -35.4375 87.375 C-36.00549316 87.76848633 -36.57348633 88.16197266 -37.15869141 88.56738281 C-40.28427807 90.75087601 -43.32212394 93.01106635 -46.3125 95.375 C-53.88917939 101.04569559 -60.6796232 101.41941696 -70 101 C-70 100.34 -70 99.68 -70 99 C-70.53109375 98.7421875 -71.0621875 98.484375 -71.609375 98.21875 C-74.53833644 96.72555397 -77.39381782 95.12816182 -80.25 93.5 C-81.32765625 92.8915625 -82.4053125 92.283125 -83.515625 91.65625 C-84.33546875 91.1096875 -85.1553125 90.563125 -86 90 C-86 89.34 -86 88.68 -86 88 C-87.06927734 87.63648438 -87.06927734 87.63648438 -88.16015625 87.265625 C-91.40182043 85.82092184 -93.71409959 84.02143183 -96.4375 81.75 C-97.34371094 81.00234375 -98.24992187 80.2546875 -99.18359375 79.484375 C-100.11300781 78.66453125 -101.04242188 77.8446875 -102 77 C-102.5470459 76.57799316 -103.0940918 76.15598633 -103.65771484 75.72119141 C-107.0995649 72.81939985 -108.39120001 70.71067104 -108.796875 66.1796875 C-108.81268627 64.41145999 -108.79631506 62.64269156 -108.75 60.875 C-108.78480469 59.53501953 -108.78480469 59.53501953 -108.8203125 58.16796875 C-108.79748706 55.62293223 -108.67617995 53.45449342 -108 51 C-104.95256065 48.23488474 -103.21836917 47.10594515 -99.125 46.75 C-98.42375 46.8325 -97.7225 46.915 -97 47 C-96.67 45.68 -96.34 44.36 -96 43 C-91.62541626 42.60442594 -89.6991512 43.54427792 -86.25 46.1875 C-82.9612432 48.59402696 -79.695037 50.92124268 -76.1875 53 C-75.50042969 53.4125 -74.81335938 53.825 -74.10546875 54.25 C-70.02356652 55.70403567 -65.99312069 53.7208154 -62.12890625 52.1875 C-61.22462891 51.83429688 -60.32035156 51.48109375 -59.38867188 51.1171875 C-57.50793516 50.37373111 -55.62772397 49.62894387 -53.74804688 48.8828125 C-49.16978655 47.09712805 -44.92781311 45.52651092 -40 45 C-41.27558217 47.55116434 -42.2070569 47.68282276 -44.81640625 48.7265625 C-45.58017578 49.0359375 -46.34394531 49.3453125 -47.13085938 49.6640625 C-47.93330078 49.98117188 -48.73574219 50.29828125 -49.5625 50.625 C-50.36880859 50.94984375 -51.17511719 51.2746875 -52.00585938 51.609375 C-54.0014662 52.41234106 -56.00042907 53.20695702 -58 54 C-58 55.32 -58 56.64 -58 58 C-52.30913852 56.37968527 -47.59129401 54.38158162 -42.7265625 50.98828125 C-41 50 -41 50 -38 50 C-38 49.34 -38 48.68 -38 48 C-37.33355469 47.6596875 -36.66710937 47.319375 -35.98046875 46.96875 C-29.65955587 43.64474547 -23.91883647 39.93312646 -18.21484375 35.63671875 C-16 34 -16 34 -14 33 C-13.53045739 29.95418731 -13.53045739 29.95418731 -13.375 26.4375 C-13.30023438 25.23996094 -13.22546875 24.04242188 -13.1484375 22.80859375 C-13.07496094 21.41833984 -13.07496094 21.41833984 -13 20 C-16.4306283 20.55032098 -16.4306283 20.55032098 -20 22 C-21.99425024 24.98434837 -21.99425024 24.98434837 -23 28 C-23.89742863 25.57694269 -23.99492592 23.95737769 -23.6875 21.375 C-22 19 -22 19 -19.8828125 18.58984375 C-19.03460938 18.49832031 -18.18640625 18.40679687 -17.3125 18.3125 C-13.79639229 17.79856819 -12.36873587 17.37813897 -9.85546875 14.80078125 C-7.23282861 11.0186581 -5.00309595 7.14101566 -3 3 C-2.34 3 -1.68 3 -1 3 C-0.67 2.01 -0.34 1.02 0 0 Z " fill="#552921" transform="translate(166,109)"/>
<path d="M0 0 C0.66 0 1.32 0 2 0 C2 3.96 2 7.92 2 12 C2.66 12 3.32 12 4 12 C4.144375 11.05125 4.28875 10.1025 4.4375 9.125 C5 6 5 6 6 4 C6.66 4 7.32 4 8 4 C7.835 4.94875 7.67 5.8975 7.5 6.875 C6.9473365 9.80168901 6.9473365 9.80168901 7 12 C7.33773437 11.4225 7.67546875 10.845 8.0234375 10.25 C8.69246094 9.13625 8.69246094 9.13625 9.375 8 C9.81585938 7.2575 10.25671875 6.515 10.7109375 5.75 C11.34902344 4.88375 11.34902344 4.88375 12 4 C12.66 4 13.32 4 14 4 C14.495 8.455 14.495 8.455 15 13 C16.81242323 8.9811485 18.33501617 5.38889325 19 1 C19.99 1 20.98 1 22 1 C22.99 3.31 23.98 5.62 25 8 C25.33 5.69 25.66 3.38 26 1 C26.66 1 27.32 1 28 1 C28 4.3 28 7.6 28 11 C28.66 11 29.32 11 30 11 C30.33 8.69 30.66 6.38 31 4 C31.99 4 32.98 4 34 4 C35.98 7.63 37.96 11.26 40 15 C40 11.37 40 7.74 40 4 C40.99 4.33 41.98 4.66 43 5 C43 5.99 43 6.98 43 8 C43.66 8 44.32 8 45 8 C46.296875 9.828125 46.296875 9.828125 47.75 12.25 C50.41092142 16.41178597 52.69377349 18.64182834 57 21 C56.505 19.783125 56.01 18.56625 55.5 17.3125 C54.27520559 14.07513262 53.67196815 11.49900643 54 8 C54.66 8 55.32 8 56 8 C56.556875 9.175625 57.11375 10.35125 57.6875 11.5625 C59.75127845 15.71224807 62.22203552 19.29604736 65 23 C64.505 19.535 64.505 19.535 64 16 C65.485 16.495 65.485 16.495 67 17 C67 15.35 67 13.7 67 12 C67.66 12 68.32 12 69 12 C69.495 17.94 69.495 17.94 70 24 C71.65 24.66 73.3 25.32 75 26 C75 22.7 75 19.4 75 16 C75.66 16 76.32 16 77 16 C77.99 19.465 77.99 19.465 79 23 C81.0745356 23.1490712 81.0745356 23.1490712 83 22 C83 23.32 83 24.64 83 26 C81.68 26 80.36 26 79 26 C79.495 27.485 79.495 27.485 80 29 C79.54625 29.556875 79.0925 30.11375 78.625 30.6875 C76.2710029 34.03741895 76.33783404 36.94599148 76 41 C74.02 40.67 72.04 40.34 70 40 C68.84604289 41.41005725 67.70212534 42.82833458 66.5625 44.25 C65.92441406 45.03890625 65.28632813 45.8278125 64.62890625 46.640625 C63.09494695 48.86247492 62.42869754 50.36743482 62 53 C61.34 53 60.68 53 60 53 C57.93513932 48.21327751 56.72808344 43.85812647 56 38.6875 C54.37060835 27.51452868 52.98143337 20.44541626 44 13 C43.67 15.64 43.34 18.28 43 21 C42.34 21 41.68 21 41 21 C37.48352195 17.24100622 34.33048559 13.28776943 34 8 C33.34 8 32.68 8 32 8 C31.34 11.63 30.68 15.26 30 19 C28.515 19.495 28.515 19.495 27 20 C26.3490741 18.75264433 25.70448331 17.50198168 25.0625 16.25 C24.52302734 15.20585938 24.52302734 15.20585938 23.97265625 14.140625 C23 12 23 12 22.49609375 9.796875 C22.25052734 8.90742187 22.25052734 8.90742187 22 8 C21.34 7.67 20.68 7.34 20 7 C19.88785156 7.54140625 19.77570313 8.0828125 19.66015625 8.640625 C18.86002037 11.50028221 17.6876185 14.05743708 16.4375 16.75 C15.98246094 17.73484375 15.52742188 18.7196875 15.05859375 19.734375 C14.70925781 20.48203125 14.35992187 21.2296875 14 22 C13.34 22 12.68 22 12 22 C11.505 16.555 11.505 16.555 11 11 C10.54109375 11.71027344 10.0821875 12.42054687 9.609375 13.15234375 C8.99578125 14.07144531 8.3821875 14.99054688 7.75 15.9375 C7.14671875 16.85402344 6.5434375 17.77054688 5.921875 18.71484375 C4 21 4 21 0 22 C-0.33 17.38 -0.66 12.76 -1 8 C-2.11375 9.77375 -3.2275 11.5475 -4.375 13.375 C-7.75 18.75 -7.75 18.75 -10 21 C-7.36 21.99 -4.72 22.98 -2 24 C-2 24.66 -2 25.32 -2 26 C-4.06242617 26.02717692 -6.12495703 26.0464758 -8.1875 26.0625 C-9.33605469 26.07410156 -10.48460938 26.08570312 -11.66796875 26.09765625 C-14.59300586 26.01192832 -17.16316291 25.67849023 -20 25 C-19.67 24.34 -19.34 23.68 -19 23 C-16.4375 22.375 -16.4375 22.375 -14 22 C-14 19.36 -14 16.72 -14 14 C-14.74443359 15.01320313 -14.74443359 15.01320313 -15.50390625 16.046875 C-19.57934747 21.39830826 -22.85621229 25.1840973 -29 28 C-29 32.29 -29 36.58 -29 41 C-31.31 40.34 -33.62 39.68 -36 39 C-35.67 36.36 -35.34 33.72 -35 31 C-34.01 30.67 -33.02 30.34 -32 30 C-32 29.01 -32 28.02 -32 27 C-35.54518884 28.39759905 -35.54518884 28.39759905 -39 30 C-37.68 23.4 -36.36 16.8 -35 10 C-34.01 9.67 -33.02 9.34 -32 9 C-32.66 12.96 -33.32 16.92 -34 21 C-33.34 20.01 -32.68 19.02 -32 18 C-31.34 18 -30.68 18 -30 18 C-29.67 19.98 -29.34 21.96 -29 24 C-26.74993136 20.09867132 -26.60606215 16.66214723 -26.34375 12.2421875 C-26 10 -26 10 -24 8 C-23.67 9.98 -23.34 11.96 -23 14 C-22.34 12.68 -21.68 11.36 -21 10 C-19.90341064 13.28976808 -20.20046862 14.71303767 -21 18 C-19.70291686 16.58829091 -18.41254022 15.17041804 -17.125 13.75 C-16.40570313 12.96109375 -15.68640625 12.1721875 -14.9453125 11.359375 C-13.23064517 9.27973832 -12.07019127 7.45580733 -11 5 C-10.67 5 -10.34 5 -10 5 C-10 8.96 -10 12.92 -10 17 C-9.44570312 16.0615625 -8.89140625 15.123125 -8.3203125 14.15625 C-7.5889246 12.93727016 -6.85713286 11.71853255 -6.125 10.5 C-5.76019531 9.87996094 -5.39539063 9.25992188 -5.01953125 8.62109375 C-4.0677482 7.04632542 -3.03889741 5.51870947 -2 4 C-1.34 4 -0.68 4 0 4 C0 2.68 0 1.36 0 0 Z " fill="#533E2D" transform="translate(86,56)"/>
<path d="M0 0 C1.6415049 3.2830098 0.51888624 6.42545033 0 10 C-0.57218262 10.15557373 -1.14436523 10.31114746 -1.73388672 10.47143555 C-12.28396499 13.34116636 -22.8298255 16.22332854 -33.35864258 19.17016602 C-39.67540553 20.92918398 -46.01595627 22.59356165 -52.36987305 24.21313477 C-62.84899939 26.68744523 -62.84899939 26.68744523 -72 32 C-72.969375 32.53625 -73.93875 33.0725 -74.9375 33.625 C-78.58033184 35.66624198 -82.00806798 37.99859266 -85.4375 40.375 C-86.00549316 40.76848633 -86.57348633 41.16197266 -87.15869141 41.56738281 C-90.28427807 43.75087601 -93.32212394 46.01106635 -96.3125 48.375 C-103.88917939 54.04569559 -110.6796232 54.41941696 -120 54 C-120 53.34 -120 52.68 -120 52 C-120.66 52 -121.32 52 -122 52 C-122 51.34 -122 50.68 -122 50 C-121.01 50 -120.02 50 -119 50 C-118.773125 49.0925 -118.54625 48.185 -118.3125 47.25 C-116.7843457 43.46599888 -115.46930347 42.09771838 -112 40 C-109.4375 39.5 -109.4375 39.5 -107 40 C-104.6875 42 -104.6875 42 -103 44 C-101.96875 43.360625 -100.9375 42.72125 -99.875 42.0625 C-96.5866671 40.17586052 -93.79478754 39.42164306 -90 39 C-88.66262906 38.68325425 -87.32711192 38.35729936 -86 38 C-86 37.34 -86 36.68 -86 36 C-85.34 36 -84.68 36 -84 36 C-84 35.34 -84 34.68 -84 34 C-80.53846154 31 -80.53846154 31 -78 31 C-78 30.34 -78 29.68 -78 29 C-76.02 28.67 -74.04 28.34 -72 28 C-72 27.01 -72 26.02 -72 25 C-69.50399697 24.00947453 -67.00395203 23.03255943 -64.5 22.0625 C-63.80390625 21.78470703 -63.1078125 21.50691406 -62.390625 21.22070312 C-57.55808233 19.36375386 -53.15932112 18.45899366 -48 18 C-48 17.34 -48 16.68 -48 16 C-46.274773 15.32320342 -44.54461061 14.65898 -42.8125 14 C-41.84957031 13.62875 -40.88664062 13.2575 -39.89453125 12.875 C-37.07817642 12.02363228 -34.91835561 11.82927353 -32 12 C-32 11.34 -32 10.68 -32 10 C-29.1365029 8.69841041 -26.76395766 7.96940192 -23.625 7.5625 C-19.6699694 6.94878835 -16.66687443 5.58054932 -13 4 C-10.71361565 3.43325617 -8.42868032 2.95916773 -6.11328125 2.52734375 C-3.86545475 1.96642586 -2.0297452 1.10421805 0 0 Z " fill="#562925" transform="translate(216,156)"/>
<path d="M0 0 C-0.165 1.299375 -0.33 2.59875 -0.5 3.9375 C-0.47417302 9.42142779 1.79897596 12.05201609 5.5 15.8984375 C8.13436729 18.11295251 10.78922626 19.6177538 13.8125 21.25 C17.23347276 23.28268326 18.72227743 24.3818689 20.3671875 28.04296875 C21.81058807 34.01589779 22.36039014 39.87336755 22 46 C19.03 45.01 16.06 44.02 13 43 C13 42.34 13 41.68 13 41 C12.28714844 40.75765625 11.57429688 40.5153125 10.83984375 40.265625 C7.59817957 38.82092184 5.28590041 37.02143183 2.5625 34.75 C1.20318359 33.62851563 1.20318359 33.62851563 -0.18359375 32.484375 C-1.11300781 31.66453125 -2.04242188 30.8446875 -3 30 C-3.5470459 29.57799316 -4.0940918 29.15598633 -4.65771484 28.72119141 C-8.0995649 25.81939985 -9.39120001 23.71067104 -9.796875 19.1796875 C-9.81268627 17.41145999 -9.79631506 15.64269156 -9.75 13.875 C-9.77320313 12.98167969 -9.79640625 12.08835938 -9.8203125 11.16796875 C-9.79748822 8.62306158 -9.67531622 6.45455844 -9 4 C-5.8585729 1.12465006 -4.27033276 0 0 0 Z " fill="#81403A" transform="translate(67,156)"/>
<path d="M0 0 C0.66 0 1.32 0 2 0 C2.8353125 1.7634375 2.8353125 1.7634375 3.6875 3.5625 C5.75127845 7.71224807 8.22203552 11.29604736 11 15 C10.67 12.69 10.34 10.38 10 8 C10.99 8.33 11.98 8.66 13 9 C13 7.35 13 5.7 13 4 C13.66 4 14.32 4 15 4 C15.33 7.96 15.66 11.92 16 16 C17.65 16.66 19.3 17.32 21 18 C21 14.7 21 11.4 21 8 C21.66 8 22.32 8 23 8 C23.66 10.31 24.32 12.62 25 15 C27.0745356 15.1490712 27.0745356 15.1490712 29 14 C29 15.32 29 16.64 29 18 C27.68 18 26.36 18 25 18 C25.33 18.99 25.66 19.98 26 21 C25.54625 21.556875 25.0925 22.11375 24.625 22.6875 C22.2710029 26.03741895 22.33783404 28.94599148 22 33 C20.02 32.67 18.04 32.34 16 32 C14.84604289 33.41005725 13.70212534 34.82833458 12.5625 36.25 C11.92441406 37.03890625 11.28632813 37.8278125 10.62890625 38.640625 C9.09494695 40.86247492 8.42869754 42.36743482 8 45 C7.34 45 6.68 45 6 45 C3.4281177 39.03790921 2.29821953 33.3833095 1.4296875 26.953125 C1.06968682 24.11484874 1.06968682 24.11484874 0.44921875 21.84375 C-0.26479717 18.91318029 -0.05767923 15.99932004 0 13 C0.99 13 1.98 13 3 13 C2.505 11.783125 2.01 10.56625 1.5 9.3125 C0.27520559 6.07513262 -0.32803185 3.49900643 0 0 Z " fill="#3C3126" transform="translate(140,64)"/>
<path d="M0 0 C2.31 1.98 4.62 3.96 7 6 C6.01 6.66 5.02 7.32 4 8 C3.67 8.99 3.34 9.98 3 11 C0.96875 11.9140625 0.96875 11.9140625 -1.5 12.625 C-4.51588079 13.34694531 -4.51588079 13.34694531 -7 15 C-7.94510813 22.16267228 -8.86253677 31.23850815 -5.6015625 37.82421875 C-3.53295004 39.90549618 -1.47009836 41.41620839 1 43 C1.96035156 43.72574219 2.92070313 44.45148438 3.91015625 45.19921875 C8.75475057 48.91355727 8.75475057 48.91355727 14 52 C14 52.66 14 53.32 14 54 C14.66 54.226875 15.32 54.45375 16 54.6875 C21.00993946 56.87934852 25.45992901 59.97328601 30 63 C30 63.66 30 64.32 30 65 C42.88382916 64.06651996 42.88382916 64.06651996 54 58 C55.60009963 56.8899478 57.20458455 55.78620042 58.8125 54.6875 C63.38551362 51.4673656 67.88187498 48.14829717 72.359375 44.796875 C75.14130738 42.90384409 77.97716472 41.47185174 81 40 C81.80824219 39.48050781 82.61648437 38.96101563 83.44921875 38.42578125 C86.52850813 36.70458581 89.37582033 35.98902593 92.8125 35.1875 C94.23576488 34.84672065 95.65893584 34.50554888 97.08203125 34.1640625 C97.86143066 33.98004883 98.64083008 33.79603516 99.44384766 33.60644531 C104.30290655 32.45363707 109.15223142 31.26179099 114 30.0625 C115.02843018 29.80855469 116.05686035 29.55460937 117.11645508 29.29296875 C124.37333275 27.47456678 131.47818213 25.3807475 138.5625 22.98046875 C142.41374736 21.88198797 146.02074085 21.40577972 150 21 C148.80797705 23.34984851 147.74234804 24.74058384 145.21289062 25.62451172 C142.89973587 26.12872866 140.58488566 26.54599069 138.25 26.9375 C130.84256326 28.33023787 124.0192449 30.19811375 116.90625 32.703125 C110.10000238 35.04055242 103.07248266 36.6744937 96.10375977 38.44921875 C94.10997108 38.97120869 92.1310653 39.52930929 90.15234375 40.10546875 C87.10875222 40.9691397 84.12785039 41.5422658 81 42 C81 42.66 81 43.32 81 44 C81.99 44 82.98 44 84 44 C84 44.66 84 45.32 84 46 C84.66 46.33 85.32 46.66 86 47 C85.29875 46.91878906 84.5975 46.83757812 83.875 46.75390625 C77.97657381 46.30421899 77.97657381 46.30421899 72.6640625 48.5234375 C70.62123296 50.39326978 70.62123296 50.39326978 68.8515625 52.37109375 C66.61142135 54.34185084 64.92250417 54.64347458 62 55 C62 55.66 62 56.32 62 57 C61.41992188 57.31453125 60.83984375 57.6290625 60.2421875 57.953125 C55.67848389 60.45337186 51.31727173 63.08835162 47 66 C42.40330173 68.65671958 38.19646516 68.73168619 33 68 C29.42952831 66.69871363 26.25761179 64.94397321 23 63 C22.21753906 62.55785156 21.43507812 62.11570313 20.62890625 61.66015625 C15.14877216 58.44631647 15.14877216 58.44631647 14 55 C13.278125 54.938125 12.55625 54.87625 11.8125 54.8125 C8.11600926 53.7446249 6.46861132 51.89180184 4 49 C4 48.34 4 47.68 4 47 C3.41347656 46.89300781 2.82695313 46.78601563 2.22265625 46.67578125 C-0.29184962 45.91126541 -1.60238809 44.91958994 -3.5625 43.1875 C-4.14128906 42.68605469 -4.72007813 42.18460938 -5.31640625 41.66796875 C-9.57567929 37.44822492 -10.43171553 34.77775085 -10.75 28.6875 C-10.82734375 27.41261719 -10.9046875 26.13773438 -10.984375 24.82421875 C-10.99981374 21.04558826 -10.63371595 17.71107899 -10 14 C-9.34 14 -8.68 14 -8 14 C-7.67 12.68 -7.34 11.36 -7 10 C-4.36 10 -1.72 10 1 10 C1 8.68 1 7.36 1 6 C0.01 5.67 -0.98 5.34 -2 5 C-1.34 3.35 -0.68 1.7 0 0 Z " fill="#2C1D1D" transform="translate(66,145)"/>
<path d="M0 0 C1.29449495 3.88348484 1.13203312 6.90697336 1 11 C0.67 11.33 0.34 11.66 0 12 C8.25 12.33 16.5 12.66 25 13 C25 13.99 25 14.98 25 16 C22.36 16 19.72 16 17 16 C17 19.96 17 23.92 17 28 C17.66 28 18.32 28 19 28 C18.67 28.99 18.34 29.98 18 31 C14.04 31 10.08 31 6 31 C6 30.34 6 29.68 6 29 C5.34 29 4.68 29 4 29 C3.67 30.98 3.34 32.96 3 35 C4.32 35.66 5.64 36.32 7 37 C5.88625 36.938125 4.7725 36.87625 3.625 36.8125 C1.830625 36.9053125 1.830625 36.9053125 0 37 C-0.66 37.99 -1.32 38.98 -2 40 C-2.57589328 35.99899678 -3.14531217 31.99712849 -3.70898438 27.99438477 C-3.9012566 26.63541375 -4.09523563 25.276683 -4.29101562 23.91821289 C-4.57360221 21.95524539 -4.84935725 19.99129834 -5.125 18.02734375 C-5.29257812 16.84906006 -5.46015625 15.67077637 -5.6328125 14.45678711 C-6.01078134 10.89850195 -6.26923728 7.57200784 -6 4 C-3 1.5625 -3 1.5625 0 0 Z " fill="#B4A088" transform="translate(62,80)"/>
<path d="M0 0 C8.30622213 0.34826927 8.30622213 0.34826927 11.0625 2.9375 C12 5 12 5 12 7 C13.0725 6.525625 14.145 6.05125 15.25 5.5625 C17.80839865 4.46233668 20.25835017 3.54832997 23 3 C23 3.66 23 4.32 23 5 C21.3603125 5.804375 21.3603125 5.804375 19.6875 6.625 C15.95532156 8.72529475 14.55739859 10.969086 13 15 C15.67247634 17.34287418 15.67247634 17.34287418 19 18 C19 18.66 19 19.32 19 20 C19.66 20.33 20.32 20.66 21 21 C19.35 21.66 17.7 22.32 16 23 C15.01 21.68 14.02 20.36 13 19 C8.33477068 19.33154227 8.33477068 19.33154227 4.1875 21.25 C2.73374251 23.39237946 1.85621338 25.56308499 1 28 C-2.875 27.125 -2.875 27.125 -4 26 C-4.2101919 24.23380413 -4.36843437 22.46128662 -4.5 20.6875 C-4.79222581 16.69557018 -4.79222581 16.69557018 -5.609375 12.79296875 C-6 11 -6 11 -4.75 8.625 C-4.1725 7.75875 -3.595 6.8925 -3 6 C-1.9849911 4.00757511 -0.98126556 2.00925805 0 0 Z " fill="#7B3E37" transform="translate(96,178)"/>
<path d="M0 0 C3.10546875 -0.15625 3.10546875 -0.15625 6 0 C7.32961133 4.75083348 7.55773221 8.28257754 6 13 C-0.40644237 19.73729151 -10.020544 25.60057159 -19 28 C-19 28.66 -19 29.32 -19 30 C-20.72718516 30.96189997 -22.45684058 31.91936508 -24.1875 32.875 C-25.15042969 33.40867188 -26.11335938 33.94234375 -27.10546875 34.4921875 C-31.36850903 36.71288055 -34.13790366 38 -39 38 C-39.33 36.68 -39.66 35.36 -40 34 C-34.10258813 30.94253032 -28.26873698 28.20566671 -22 26 C-22.33 25.34 -22.66 24.68 -23 24 C-21.989375 23.67 -20.97875 23.34 -19.9375 23 C-14.39217013 20.60414754 -10.48840245 16.09777048 -7.89453125 10.69921875 C-7.18613453 8.82678985 -6.58153052 6.91562996 -6 5 C-5.01 5 -4.02 5 -3 5 C-2.566875 4.175 -2.13375 3.35 -1.6875 2.5 C-1.130625 1.675 -0.57375 0.85 0 0 Z " fill="#917765" transform="translate(147,129)"/>
<path d="M0 0 C0.99 0 1.98 0 3 0 C3 0.66 3 1.32 3 2 C3.82177734 2.39251953 3.82177734 2.39251953 4.66015625 2.79296875 C11.51467002 6.32893662 17.71657142 10.38635713 23 16 C23.99 16.33 24.98 16.66 26 17 C26 17.66 26 18.32 26 19 C24.35666496 20.03789581 22.68756133 21.03567924 21 22 C20.34 22.66 19.68 23.32 19 24 C15.375 23.625 15.375 23.625 12 23 C12 22.34 12 21.68 12 21 C11.40832031 20.85304687 10.81664063 20.70609375 10.20703125 20.5546875 C6.31967395 19.45126145 2.8083055 18.37513797 -0.125 15.5 C-2.77435351 10.55454011 -2.15672023 6.38884743 -1 1 C-0.67 0.67 -0.34 0.34 0 0 Z " fill="#84433B" transform="translate(70,152)"/>
<path d="M0 0 C0.33 0 0.66 0 1 0 C1.495 12.375 1.495 12.375 2 25 C5.3 25.99 8.6 26.98 12 28 C12 31.96 12 35.92 12 40 C11.67 40 11.34 40 11 40 C10.99613281 39.07767578 10.99613281 39.07767578 10.9921875 38.13671875 C10.87272033 35.63985492 10.64995391 33.4159471 10 31 C6.75105937 28.36990521 4.83962896 27.98415794 0.6875 28.0625 C-2.85558043 28.96328316 -5.79670741 30.14677462 -9.0859375 31.6953125 C-12.9829273 33.44007737 -16.95382629 34.96562337 -20.9375 36.5 C-22.11783813 36.95596558 -22.11783813 36.95596558 -23.32202148 37.42114258 C-24.85533531 38.01336643 -26.38877816 38.60525638 -27.92236328 39.19677734 C-30.5780123 40.22346187 -33.22846914 41.26253902 -35.875 42.3125 C-36.59429687 42.59738281 -37.31359375 42.88226563 -38.0546875 43.17578125 C-40.05011406 43.98928607 -40.05011406 43.98928607 -42.0859375 45.09765625 C-44.4875618 46.22985056 -46.37768239 46.14568431 -49 46 C-47.67372642 43.34745283 -46.64102993 43.35178285 -43.875 42.375 C-39.1545731 40.56833301 -34.75457073 38.39171428 -30.3125 36 C-29.69552246 35.66790527 -29.07854492 35.33581055 -28.44287109 34.99365234 C-25.31869725 33.29690995 -22.23324219 31.55095714 -19.16796875 29.75 C-16 28 -16 28 -14 28 C-14 27.34 -14 26.68 -14 26 C-11.953125 24.4921875 -11.953125 24.4921875 -9.25 22.875 C-8.36828125 22.33617187 -7.4865625 21.79734375 -6.578125 21.2421875 C-4 20 -4 20 0 20 C0 13.4 0 6.8 0 0 Z " fill="#562921" transform="translate(206,116)"/>
<path d="M0 0 C3.70174658 1.43022027 4.92154318 3.41312578 6.87890625 6.78515625 C8.30922902 10.52452026 7.64346236 13.21373908 6.75 17.0625 C6.09 17.0625 5.43 17.0625 4.75 17.0625 C4.09 18.3825 3.43 19.7025 2.75 21.0625 C1.43 21.0625 0.11 21.0625 -1.25 21.0625 C-1.91 21.7225 -2.57 22.3825 -3.25 23.0625 C-3.91 23.7225 -4.57 24.3825 -5.25 25.0625 C-6.57 25.0625 -7.89 25.0625 -9.25 25.0625 C-9.375 22.6875 -9.375 22.6875 -9.25 20.0625 C-8.59 19.4025 -7.93 18.7425 -7.25 18.0625 C-7.57198966 14.96323181 -7.57198966 14.96323181 -8.25 12.0625 C-8.91 12.7225 -9.57 13.3825 -10.25 14.0625 C-9.94366511 9.16114181 -5.48681835 0.15241162 0 0 Z " fill="#B09882" transform="translate(158.25,94.9375)"/>
<path d="M0 0 C0.82242188 0.00451172 1.64484375 0.00902344 2.4921875 0.01367188 C4.49482396 0.02531511 6.49742227 0.04324444 8.5 0.0625 C8.5 1.0525 8.5 2.0425 8.5 3.0625 C5.86 3.0625 3.22 3.0625 0.5 3.0625 C0.5 7.0225 0.5 10.9825 0.5 15.0625 C1.16 15.0625 1.82 15.0625 2.5 15.0625 C2.5 15.7225 2.5 16.3825 2.5 17.0625 C-1.46 17.0625 -5.42 17.0625 -9.5 17.0625 C-9.17 12.7725 -8.84 8.4825 -8.5 4.0625 C-11.47 4.0625 -14.44 4.0625 -17.5 4.0625 C-17.5 3.0725 -17.5 2.0825 -17.5 1.0625 C-11.61599345 0.20554033 -5.94090708 -0.06289234 0 0 Z " fill="#463622" transform="translate(78.5,92.9375)"/>
<path d="M0 0 C8.58 0 17.16 0 26 0 C26 0.99 26 1.98 26 3 C22.7 3 19.4 3 16 3 C16.01160156 3.92683594 16.02320312 4.85367188 16.03515625 5.80859375 C16.04417969 7.00613281 16.05320312 8.20367187 16.0625 9.4375 C16.07410156 10.63246094 16.08570312 11.82742187 16.09765625 13.05859375 C16 16 16 16 15 17 C13.14712498 17.07226502 11.29166122 17.0838122 9.4375 17.0625 C8.42558594 17.05347656 7.41367188 17.04445313 6.37109375 17.03515625 C5.19740234 17.01775391 5.19740234 17.01775391 4 17 C4.99 16.67 5.98 16.34 7 16 C7 11.71 7 7.42 7 3 C4.69 3 2.38 3 0 3 C0 2.01 0 1.02 0 0 Z " fill="#493724" transform="translate(105,93)"/>
<path d="M0 0 C0.66 0 1.32 0 2 0 C1.34 3.96 0.68 7.92 0 12 C0.66 11.01 1.32 10.02 2 9 C2.66 9 3.32 9 4 9 C4.33 10.98 4.66 12.96 5 15 C5.99 12.36 6.98 9.72 8 7 C8.99 7.66 9.98 8.32 11 9 C11.5625 11.875 11.5625 11.875 11 15 C9.515 15.7734375 9.515 15.7734375 8 16.5625 C4.6721787 18.69321428 4.6721787 18.69321428 4.6015625 22.13671875 C4.62300197 25.44196967 4.7428853 28.70512267 5 32 C2.69 31.34 0.38 30.68 -2 30 C-1.67 27.36 -1.34 24.72 -1 22 C-0.01 21.67 0.98 21.34 2 21 C2 20.01 2 19.02 2 18 C-1.54518884 19.39759905 -1.54518884 19.39759905 -5 21 C-4.36036805 17.6862709 -3.71226081 14.37425665 -3.0625 11.0625 C-2.78889648 9.64420898 -2.78889648 9.64420898 -2.50976562 8.19726562 C-2.33251953 7.29814453 -2.15527344 6.39902344 -1.97265625 5.47265625 C-1.72914429 4.22367554 -1.72914429 4.22367554 -1.48071289 2.94946289 C-1 1 -1 1 0 0 Z " fill="#3F3122" transform="translate(52,65)"/>
<path d="M0 0 C0 0.99 0 1.98 0 3 C-4.29 3.66 -8.58 4.32 -13 5 C-13 5.66 -13 6.32 -13 7 C-13.66 7 -14.32 7 -15 7 C-15.66 8.98 -16.32 10.96 -17 13 C-17.66 13 -18.32 13 -19 13 C-19.22945312 13.63808594 -19.45890625 14.27617187 -19.6953125 14.93359375 C-21.11794485 18.27720571 -22.79418754 21.39945421 -24.52978516 24.58862305 C-28.86435312 32.55998007 -32.64576755 40.19798165 -35 49 C-35.99 49 -36.98 49 -38 49 C-37.41347648 44.51006131 -36.2356462 40.77456816 -34.4375 36.625 C-33.98246094 35.56539062 -33.52742187 34.50578125 -33.05859375 33.4140625 C-32.70925781 32.61742187 -32.35992187 31.82078125 -32 31 C-31.34 31 -30.68 31 -30 31 C-29.74476563 30.14728516 -29.74476563 30.14728516 -29.484375 29.27734375 C-27.84320767 24.0483053 -25.87105432 19.66546327 -23 15 C-22.46375 14.030625 -21.9275 13.06125 -21.375 12.0625 C-20.694375 11.0415625 -20.694375 11.0415625 -20 10 C-19.34 10 -18.68 10 -18 10 C-17.9071875 9.13375 -17.9071875 9.13375 -17.8125 8.25 C-16.45747984 4.49763647 -13.36457769 2.94108806 -10.1875 0.75 C-6.77955812 -0.41843722 -3.58866602 -0.1196222 0 0 Z " fill="#1F1F26" transform="translate(232,187)"/>
<path d="M0 0 C0.66 0 1.32 0 2 0 C2.25394531 0.54269531 2.50789063 1.08539063 2.76953125 1.64453125 C3.11371094 2.35996094 3.45789063 3.07539062 3.8125 3.8125 C4.14894531 4.52019531 4.48539063 5.22789063 4.83203125 5.95703125 C6.00645471 8.01129035 7.25628016 9.41616278 9 11 C8.38671875 13.41796875 8.38671875 13.41796875 7 16 C4.20703125 16.92578125 4.20703125 16.92578125 0.8125 17.3125 C-0.35023437 17.45042969 -1.51296875 17.58835937 -2.7109375 17.73046875 C-6.18264756 18.01496756 -9.5227841 18.16173097 -13 18 C-12.505 16.515 -12.505 16.515 -12 15 C-8.5625 13.375 -8.5625 13.375 -5 12 C-2.72573954 11.15570324 -2.72573954 11.15570324 -2.1484375 8.49609375 C-1.89320312 7.48675781 -1.63796875 6.47742188 -1.375 5.4375 C-1.11460938 4.42558594 -0.85421875 3.41367188 -0.5859375 2.37109375 C-0.39257812 1.58863281 -0.19921875 0.80617188 0 0 Z " fill="#B7A48B" transform="translate(118,64)"/>
<path d="M0 0 C2.31 1.98 4.62 3.96 7 6 C6.01 6.66 5.02 7.32 4 8 C3.67 8.99 3.34 9.98 3 11 C0.96875 11.9140625 0.96875 11.9140625 -1.5 12.625 C-4.51588079 13.34694531 -4.51588079 13.34694531 -7 15 C-7.95530288 22.23993504 -8.96867841 31.45076743 -5.35546875 37.96484375 C-3.33738184 39.91553629 -1.32561855 41.43827076 1 43 C2.3565164 44.30973998 3.69635145 45.63762854 5 47 C-1.0609531 46.63266951 -4.69107756 42.41732256 -8.6640625 38.2578125 C-10.54642667 35.07650697 -10.55810053 32.35942253 -10.75 28.6875 C-10.82734375 27.41261719 -10.9046875 26.13773438 -10.984375 24.82421875 C-10.99981374 21.04558826 -10.63371595 17.71107899 -10 14 C-9.34 14 -8.68 14 -8 14 C-7.67 12.68 -7.34 11.36 -7 10 C-4.36 10 -1.72 10 1 10 C1 8.68 1 7.36 1 6 C0.01 5.67 -0.98 5.34 -2 5 C-1.34 3.35 -0.68 1.7 0 0 Z " fill="#311815" transform="translate(66,145)"/>
<path d="M0 0 C2.04040776 2.04040776 3 3.08325244 3 6 C4.60875 5.2884375 4.60875 5.2884375 6.25 4.5625 C8.80839865 3.46233668 11.25835017 2.54832997 14 2 C14 2.66 14 3.32 14 4 C12.25318707 4.98484108 10.5024149 5.96266187 8.75 6.9375 C7.77546875 7.48277344 6.8009375 8.02804688 5.796875 8.58984375 C0.72373969 11.14766756 -3.39415363 11.18379824 -9 11 C-9.33 10.67 -9.66 10.34 -10 10 C-9.54767184 3.89356984 -9.54767184 3.89356984 -7.8125 1.0625 C-5.05704321 -0.55276777 -3.12326414 -0.45547602 0 0 Z " fill="#42230C" transform="translate(105,179)"/>
<path d="M0 0 C2.3125 2 2.3125 2 4 4 C4.763125 3.505 5.52625 3.01 6.3125 2.5 C9 1 9 1 12 1 C11 4 11 4 8.34765625 5.53515625 C7.26355469 6.03917969 6.17945312 6.54320312 5.0625 7.0625 C0.68785475 9.03982408 0.68785475 9.03982408 -3 12 C-6.29714793 11.67028521 -7.6226839 11.3773161 -10 9 C-10.4375 6.625 -10.4375 6.625 -10 4 C-6.90630452 0.72952192 -4.53412262 -0.93007643 0 0 Z " fill="#422012" transform="translate(109,196)"/>
<path d="M0 0 C0 0.66 0 1.32 0 2 C0.845625 1.835 1.69125 1.67 2.5625 1.5 C11.22777042 0.23959703 16.91781844 1.72903486 24 7 C28.32093487 11.95614922 28.64183912 16.1494195 28.75 22.4375 C28.77964844 23.25798828 28.80929688 24.07847656 28.83984375 24.92382812 C28.99712868 29.61616193 29.02527348 34.30545063 29 39 C28.34 39 27.68 39 27 39 C26.9906543 38.37544922 26.98130859 37.75089844 26.97167969 37.10742188 C26.91751063 34.2375237 26.83395805 31.36917515 26.75 28.5 C26.73582031 27.51773438 26.72164062 26.53546875 26.70703125 25.5234375 C26.50045801 19.32624017 25.91475504 14.01207274 22 9 C17.31970401 5.69055994 11.79627808 4.91596811 6.25 3.875 C5.40695313 3.70613281 4.56390625 3.53726563 3.6953125 3.36328125 C-2.18061398 2.22223742 -8.03657118 1.49881166 -14 1 C-13.67 2.65 -13.34 4.3 -13 6 C-14.32 4.68 -15.64 3.36 -17 2 C-16.67 1.01 -16.34 0.02 -16 -1 C-10.49752549 -2.50067487 -5.41157773 -1.51524176 0 0 Z " fill="#341A17" transform="translate(180,99)"/>
<path d="M0 0 C2.07717042 3.42122186 2.07717042 3.42122186 1.75 5.875 C1.5025 6.57625 1.255 7.2775 1 8 C0.649375 9.0725 0.29875 10.145 -0.0625 11.25 C-0.371875 12.1575 -0.68125 13.065 -1 14 C2.93673644 12.68775452 5.22719294 11.08089673 8 8 C8.99 8.33 9.98 8.66 11 9 C9.67240773 14.06898866 7.88941374 17.4416002 4 21 C0.9912522 21.77237989 -1.90029865 21.98649368 -5 22 C-4.67 19.69 -4.34 17.38 -4 15 C-3.34 15 -2.68 15 -2 15 C-2 12.69 -2 10.38 -2 8 C-2.66 7.67 -3.32 7.34 -4 7 C-3.34 6.01 -2.68 5.02 -2 4 C-2.66 3.67 -3.32 3.34 -4 3 C-3.01 3 -2.02 3 -1 3 C-0.67 2.01 -0.34 1.02 0 0 Z " fill="#B7A089" transform="translate(150,106)"/>
<path d="M0 0 C-1 2 -2 4 -3 6 C-2.01 6 -1.02 6 0 6 C1.62342342 9.24684684 1.47167894 11.4034481 1 15 C-0.96890341 17.79108286 -3.1565702 20.0986008 -6 22 C-7.32 22 -8.64 22 -10 22 C-10.125 19.625 -10.125 19.625 -10 17 C-9.34 16.34 -8.68 15.68 -8 15 C-7.72592615 12.99444499 -7.72592615 12.99444499 -7.6875 10.75 C-7.30208442 6.3319955 -5.38715037 0 0 0 Z " fill="#4E3A26" transform="translate(159,98)"/>
<path d="M0 0 C0.33 0.99 0.66 1.98 1 3 C-0.2065625 4.546875 -0.2065625 4.546875 -1.4375 6.125 C-4.29435202 9.81608428 -4.42373804 12.51836819 -4.078125 17.08203125 C-4 19 -4 19 -5 21 C-7.06640625 21.4140625 -7.06640625 21.4140625 -9.5625 21.625 C-10.38878906 21.69976562 -11.21507812 21.77453125 -12.06640625 21.8515625 C-13.02353516 21.92503906 -13.02353516 21.92503906 -14 22 C-14 21.34 -14 20.68 -14 20 C-13.34 19.67 -12.68 19.34 -12 19 C-12 18.01 -12 17.02 -12 16 C-10.02 16.33 -8.04 16.66 -6 17 C-6.433125 16.37351562 -6.86625 15.74703125 -7.3125 15.1015625 C-7.869375 14.28429687 -8.42625 13.46703125 -9 12.625 C-9.556875 11.81289062 -10.11375 11.00078125 -10.6875 10.1640625 C-12 8 -12 8 -12 6 C-9.36 5.67 -6.72 5.34 -4 5 C-8.455 4.01 -8.455 4.01 -13 3 C-13 2.67 -13 2.34 -13 2 C-8.71 2 -4.42 2 0 2 C0 1.34 0 0.68 0 0 Z " fill="#30241C" transform="translate(180,56)"/>
<path d="M0 0 C3.375 0.3125 3.375 0.3125 7 1 C9.45331002 4.67996503 9.39507893 6.65413172 9 11 C6 13 6 13 3.5 12.875 C0.41890042 11.79661515 -0.48428997 10.87187163 -2 8 C-2.46043998 4.22439213 -2.17175481 3.25763222 0 0 Z " fill="#6C6134" transform="translate(167,208)"/>
<path d="M0 0 C3 1 3 1 3.9140625 2.671875 C4.26597656 3.70054688 4.26597656 3.70054688 4.625 4.75 C4.87121094 5.46671875 5.11742188 6.1834375 5.37109375 6.921875 C6.0791494 9.26153715 6.62257545 11.58448288 7 14 C5.329375 14.680625 5.329375 14.680625 3.625 15.375 C0.03800992 16.72465986 0.03800992 16.72465986 -2 19 C-2.33 18.01 -2.66 17.02 -3 16 C-2.34 16 -1.68 16 -1 16 C-2.06201737 13.77260299 -2.06201737 13.77260299 -4 11 C-3.14115035 7.06360577 -1.97000947 3.51787406 0 0 Z " fill="#B7A38C" transform="translate(106,63)"/>
<path d="M0 0 C0.66 0.66 1.32 1.32 2 2 C3.66614608 2.04165365 5.33385392 2.04165365 7 2 C7.66 2.33 8.32 2.66 9 3 C8.01 6.96 7.02 10.92 6 15 C7.32 15.66 8.64 16.32 10 17 C8.88625 16.938125 7.7725 16.87625 6.625 16.8125 C4.830625 16.9053125 4.830625 16.9053125 3 17 C2.34 17.99 1.68 18.98 1 20 C0.11722245 15.48184719 -0.10589503 11.22487306 -0.0625 6.625 C-0.05347656 5.37976563 -0.04445312 4.13453125 -0.03515625 2.8515625 C-0.02355469 1.91054687 -0.01195312 0.96953125 0 0 Z " fill="#B9A48A" transform="translate(59,100)"/>
<path d="M0 0 C0 0.99 0 1.98 0 3 C-0.58378418 3.22139648 -1.16756836 3.44279297 -1.76904297 3.67089844 C-4.4713788 4.69634552 -7.17319059 5.72316677 -9.875 6.75 C-10.7928125 7.09804687 -11.710625 7.44609375 -12.65625 7.8046875 C-23.0601445 11.55555848 -23.0601445 11.55555848 -33.11279297 16.10839844 C-35.49940381 17.23594084 -37.39359904 17.14480005 -40 17 C-38.65770854 14.31541707 -37.47897232 14.26508084 -34.6875 13.25 C-30.67785483 11.72929651 -26.96627959 9.96256406 -23.1875 7.9375 C-17.84293459 5.1926197 -12.69784458 3.7657644 -6.8125 2.640625 C-4.24030997 2.05473727 -2.28203503 1.29461603 0 0 Z " fill="#541D16" transform="translate(197,145)"/>
<path d="M0 0 C0.33 0 0.66 0 1 0 C1 4.95 1 9.9 1 15 C1.99 15.33 2.98 15.66 4 16 C3.01 16.33 2.02 16.66 1 17 C0.34 17.66 -0.32 18.32 -1 19 C-1 18.34 -1 17.68 -1 17 C-5.455 16.01 -5.455 16.01 -10 15 C-8.53345118 12.80017677 -7.06660866 10.60056332 -5.59765625 8.40234375 C-4.63972426 6.96193257 -3.68730122 5.51780095 -2.74609375 4.06640625 C-1.85482632 2.69497261 -0.93099993 1.34477767 0 0 Z " fill="#BCA690" transform="translate(85,63)"/>
<path d="M0 0 C0 0.66 0 1.32 0 2 C1.32 2.33 2.64 2.66 4 3 C2.27281484 3.96189997 0.54315942 4.91936508 -1.1875 5.875 C-2.15042969 6.40867188 -3.11335938 6.94234375 -4.10546875 7.4921875 C-8.36850903 9.71288055 -11.13790366 11 -16 11 C-16.33 9.68 -16.66 8.36 -17 7 C-15.43880578 6.20576139 -13.87598036 5.41472877 -12.3125 4.625 C-11.00732422 3.96371094 -11.00732422 3.96371094 -9.67578125 3.2890625 C-2.84848485 0 -2.84848485 0 0 0 Z " fill="#896F61" transform="translate(124,156)"/>
<path d="M0 0 C1.32 0.33 2.64 0.66 4 1 C4 1.66 4 2.32 4 3 C5.98 2.67 7.96 2.34 10 2 C10.33 3.98 10.66 5.96 11 8 C10.01 8.495 10.01 8.495 9 9 C8.34 8.67 7.68 8.34 7 8 C7.33 6.68 7.66 5.36 8 4 C5.69 4 3.38 4 1 4 C1.33 4.99 1.66 5.98 2 7 C1.01 7.495 1.01 7.495 0 8 C-1.13350534 10.01669827 -1.13350534 10.01669827 -2 12 C-2.33 10.68 -2.66 9.36 -3 8 C-4.32 7.67 -5.64 7.34 -7 7 C-7 6.34 -7 5.68 -7 5 C-7.94875 5.04125 -8.8975 5.0825 -9.875 5.125 C-13 5 -13 5 -15 3 C-4.44191344 1.66742597 -4.44191344 1.66742597 0 3 C0 2.01 0 1.02 0 0 Z " fill="#16120F" transform="translate(15,208)"/>
<path d="M0 0 C2.375 0.75 2.375 0.75 4 2 C5.53144573 5.44575289 5.26901967 9.30097951 5 13 C3.9375 14.875 3.9375 14.875 2 16 C-1.6875 16.6875 -1.6875 16.6875 -5 17 C-5 16.34 -5 15.68 -5 15 C-5.99 15 -6.98 15 -8 15 C-10.33479983 11.35187527 -10.38018947 8.25812212 -10 4 C-7.87754574 -0.86915977 -4.92318258 -0.51822975 0 0 Z M-6 2 C-8.35618542 4.88599388 -8.35618542 4.88599388 -7.8125 8.5 C-7.21807165 11.86270104 -7.21807165 11.86270104 -5.8125 14 C-3.02633212 15.53719607 -0.98413247 14.77846934 2 14 C3.36997745 12.84254513 3.36997745 12.84254513 3.3125 9.6875 C3.3093571 6.0147758 3.3093571 6.0147758 1.3125 3.5625 C-1.42873562 1.71031377 -2.75822636 1.40283117 -6 2 Z " fill="#24221A" transform="translate(173,206)"/>
<path d="M0 0 C-2.82959583 7.94055329 -15.92224098 12.61737779 -22.9765625 16.28515625 C-25 17 -25 17 -28 16 C-16.47835991 8.51708428 -16.47835991 8.51708428 -11 6 C-13.31 5.01 -15.62 4.02 -18 3 C-18 2.34 -18 1.68 -18 1 C-17.16855469 1.09539062 -16.33710938 1.19078125 -15.48046875 1.2890625 C-14.39378906 1.39992188 -13.30710938 1.51078125 -12.1875 1.625 C-10.56908203 1.79902344 -10.56908203 1.79902344 -8.91796875 1.9765625 C-5.17236456 2.00664767 -3.7607263 0 0 0 Z " fill="#481A13" transform="translate(188,122)"/>
<path d="M0 0 C0.02698189 1.62490954 0.04638757 3.24994633 0.0625 4.875 C0.07410156 5.77992187 0.08570312 6.68484375 0.09765625 7.6171875 C0 10 0 10 -1 12 C-1.99 12 -2.98 12 -4 12 C-4 11.34 -4 10.68 -4 10 C-4.99 10.33 -5.98 10.66 -7 11 C-8.1577506 7.52674819 -8.06866652 4.63932552 -8 1 C-4.85571151 -0.9090323 -3.47925125 -1.04523725 0 0 Z " fill="#402D1E" transform="translate(78,97)"/>
<path d="M0 0 C0.66 0 1.32 0 2 0 C2 5.94 2 11.88 2 18 C1.34 18 0.68 18 0 18 C-0.33 14.37 -0.66 10.74 -1 7 C-1.47050781 7.71027344 -1.94101563 8.42054687 -2.42578125 9.15234375 C-3.04839844 10.07144531 -3.67101562 10.99054688 -4.3125 11.9375 C-5.23482422 13.31228516 -5.23482422 13.31228516 -6.17578125 14.71484375 C-8 17 -8 17 -11 18 C-11 15.69 -11 13.38 -11 11 C-10.01 10.67 -9.02 10.34 -8 10 C-7.67 10.66 -7.34 11.32 -7 12 C-6.51789063 11.13375 -6.03578125 10.2675 -5.5390625 9.375 C-4.90742187 8.26125 -4.27578125 7.1475 -3.625 6 C-2.99851562 4.88625 -2.37203125 3.7725 -1.7265625 2.625 C-0.87191406 1.325625 -0.87191406 1.325625 0 0 Z " fill="#4F3927" transform="translate(98,60)"/>
<path d="M0 0 C1.32 0 2.64 0 4 0 C3.125 6.875 3.125 6.875 2 8 C3.32 8.33 4.64 8.66 6 9 C6 9.66 6 10.32 6 11 C8.64 11 11.28 11 14 11 C14 12.98 14 14.96 14 17 C13.01 17 12.02 17 11 17 C11 16.67 11 16.34 11 16 C7.04 16.495 7.04 16.495 3 17 C3.33 16.34 3.66 15.68 4 15 C6.3140622 14.26924352 8.64828869 13.59861742 11 13 C10.16855469 12.80664062 9.33710938 12.61328125 8.48046875 12.4140625 C7.39378906 12.15367188 6.30710938 11.89328125 5.1875 11.625 C4.10855469 11.36976562 3.02960938 11.11453125 1.91796875 10.8515625 C-1 10 -1 10 -4 8 C-2.75453595 4.26360784 -1.36595047 3.81243487 2 2 C1.34 1.34 0.68 0.68 0 0 Z " fill="#45322C" transform="translate(157,21)"/>
<path d="M0 0 C0.33 0 0.66 0 1 0 C1.33 8.25 1.66 16.5 2 25 C5.3 25.99 8.6 26.98 12 28 C12 31.96 12 35.92 12 40 C11.67 40 11.34 40 11 40 C10.99613281 39.07767578 10.99613281 39.07767578 10.9921875 38.13671875 C10.872937 35.64438329 10.63668574 33.41427813 10 31 C7.11497403 28.48484915 5.18405959 27.97353071 1.37890625 28.05859375 C-1.10195765 28.28732588 -3.5420039 28.59681092 -6 29 C-6 28.34 -6 27.68 -6 27 C-5.360625 26.7525 -4.72125 26.505 -4.0625 26.25 C-1.86467824 25.2185767 -1.86467824 25.2185767 -1.39086914 23.23339844 C-0.96677796 20.81017166 -0.78850909 18.47364146 -0.68359375 16.015625 C-0.64169922 15.08105469 -0.59980469 14.14648438 -0.55664062 13.18359375 C-0.49766602 11.73146484 -0.49766602 11.73146484 -0.4375 10.25 C-0.37272461 8.77466797 -0.37272461 8.77466797 -0.30664062 7.26953125 C-0.20077948 4.84648725 -0.09869829 2.4233446 0 0 Z " fill="#4B2724" transform="translate(206,116)"/>
<path d="M0 0 C2.4375 0.125 2.4375 0.125 5 1 C6.3125 3.5625 6.3125 3.5625 7 6 C6.360625 6.12375 5.72125 6.2475 5.0625 6.375 C4.381875 6.58125 3.70125 6.7875 3 7 C2.67 7.66 2.34 8.32 2 9 C1.34 9 0.68 9 0 9 C1 7 2 5 3 3 C-1.4008703 6.82180842 -2.80805531 9.47371099 -4 15 C-4.66 14.01 -5.32 13.02 -6 12 C-6.66 12.66 -7.32 13.32 -8 14 C-7.65015815 8.40253042 -3.85992893 3.85992893 0 0 Z " fill="#B09D8B" transform="translate(156,95)"/>
<path d="M0 0 C0.66 0 1.32 0 2 0 C2 3.96 2 7.92 2 12 C2.66 12 3.32 12 4 12 C4.2165625 10.576875 4.2165625 10.576875 4.4375 9.125 C5 6 5 6 6 4 C6.66 4 7.32 4 8 4 C7.343621 8.48525648 6.29925791 12.66914029 5 17 C3.68 16.34 2.36 15.68 1 15 C1 17.31 1 19.62 1 22 C0.67 22 0.34 22 0 22 C-0.19502282 19.08365878 -0.38129328 16.16720455 -0.5625 13.25 C-0.61857422 12.425 -0.67464844 11.6 -0.73242188 10.75 C-0.78076172 9.95078125 -0.82910156 9.1515625 -0.87890625 8.328125 C-0.9260376 7.5949707 -0.97316895 6.86181641 -1.02172852 6.10644531 C-0.99913793 3.91642774 -0.61487456 2.09512813 0 0 Z " fill="#5C4435" transform="translate(86,56)"/>
<path d="M0 0 C2.97703018 2.77171776 4.94223867 5.51075252 7 9 C7.556875 9.556875 8.11375 10.11375 8.6875 10.6875 C9.120625 11.120625 9.55375 11.55375 10 12 C10 12.66 10 13.32 10 14 C10.66 14.33 11.32 14.66 12 15 C10.35 15.33 8.7 15.66 7 16 C6.62875 15.34 6.2575 14.68 5.875 14 C4.09105222 11.64696955 4.09105222 11.64696955 0.8125 11.75 C-0.5796875 11.87375 -0.5796875 11.87375 -2 12 C-1.01 11.67 -0.02 11.34 1 11 C0.67 10.34 0.34 9.68 0 9 C-0.06950541 7.45976004 -0.08452357 5.91665012 -0.0625 4.375 C-0.05347656 3.55773437 -0.04445313 2.74046875 -0.03515625 1.8984375 C-0.02355469 1.27195312 -0.01195313 0.64546875 0 0 Z M6 11 C7 13 7 13 7 13 Z " fill="#9E8274" transform="translate(116,7)"/>
<path d="M0 0 C5.25412337 0.41208811 8.28336057 1.17717087 12 5 C14.1731038 9.19529762 14.2389766 12.8203095 14.1875 17.5 C14.17783203 19.43359375 14.17783203 19.43359375 14.16796875 21.40625 C14.02765577 24.40829511 13.7000968 27.08759732 13 30 C12.67 30 12.34 30 12 30 C11.93941406 28.78183594 11.87882813 27.56367188 11.81640625 26.30859375 C11.73193597 24.68488723 11.64729128 23.06118978 11.5625 21.4375 C11.52318359 20.63763672 11.48386719 19.83777344 11.44335938 19.01367188 C11.19251844 14.28628494 10.74678186 9.67523099 10 5 C8.68 5 7.36 5 6 5 C4.4375 3.625 4.4375 3.625 3 2 C2.01 1.34 1.02 0.68 0 0 Z " fill="#7B4442" transform="translate(192,104)"/>
<path d="M0 0 C0.99 0 1.98 0 3 0 C2.67 0.66 2.34 1.32 2 2 C1.93003986 3.70702735 1.91559846 5.41668003 1.9375 7.125 C1.94652344 8.03507813 1.95554687 8.94515625 1.96484375 9.8828125 C1.97644531 10.58148438 1.98804687 11.28015625 2 12 C-2.12751449 11.39301257 -5.3321148 9.96189209 -9 8 C-9 7.34 -9 6.68 -9 6 C-9.598125 5.896875 -10.19625 5.79375 -10.8125 5.6875 C-13.28243264 4.91123545 -14.32251235 3.92911079 -16 2 C-12.625 2.25 -12.625 2.25 -9 3 C-7.5625 5.0625 -7.5625 5.0625 -7 7 C-5.68 7 -4.36 7 -3 7 C-2.01 4.69 -1.02 2.38 0 0 Z " fill="#412F27" transform="translate(115,6)"/>
<path d="M0 0 C2.475 0.99 2.475 0.99 5 2 C5 1.34 5 0.68 5 0 C5.66 0 6.32 0 7 0 C7 1.32 7 2.64 7 4 C5.68 4 4.36 4 3 4 C3.33 4.99 3.66 5.98 4 7 C3.01 7.99 2.02 8.98 1 10 C-0.83691257 6.21812119 -1.15837626 4.05431692 0 0 Z M-1 10 C-0.34 10.33 0.32 10.66 1 11 C0.67 13.64 0.34 16.28 0 19 C-0.66 18.67 -1.32 18.34 -2 18 C-2 17.34 -2 16.68 -2 16 C-3.65 16 -5.3 16 -7 16 C-6.67 15.34 -6.34 14.68 -6 14 C-4.68 14 -3.36 14 -2 14 C-2.33 13.01 -2.66 12.02 -3 11 C-2.34 10.67 -1.68 10.34 -1 10 Z " fill="#2F261F" transform="translate(162,78)"/>
<path d="M0 0 C0.66 0 1.32 0 2 0 C3.20029908 2.40059817 3.11459743 3.89360649 3.09765625 6.5703125 C3.09443359 7.46621094 3.09121094 8.36210937 3.08789062 9.28515625 C3.07951172 10.22230469 3.07113281 11.15945312 3.0625 12.125 C3.05798828 13.06988281 3.05347656 14.01476562 3.04882812 14.98828125 C3.03702357 17.32558387 3.02055759 19.66276061 3 22 C2.01 22 1.02 22 0 22 C0 14.74 0 7.48 0 0 Z " fill="#1F1E25" transform="translate(182,214)"/>
<path d="M0 0 C6.15234375 0.5859375 6.15234375 0.5859375 8 1 C8.33 1.66 8.66 2.32 9 3 C9.99 3.33 10.98 3.66 12 4 C11.67 4.99 11.34 5.98 11 7 C7.37 7 3.74 7 0 7 C0 4.69 0 2.38 0 0 Z " fill="#211D1A" transform="translate(0,212)"/>
<path d="M0 0 C0.33 0 0.66 0 1 0 C0.98839844 0.56396484 0.97679687 1.12792969 0.96484375 1.70898438 C0.49262723 12.7372184 0.49262723 12.7372184 3.70703125 22.96875 C5.70794791 24.89913342 7.70803248 26.43516875 10 28 C11.3553865 29.31090922 12.6948212 30.63909447 14 32 C8.71465294 31.67967594 5.56779936 28.61273386 2 25 C-0.20192224 21.69711664 -0.23959968 20.72537273 -0.1953125 16.89453125 C-0.18886719 15.91162109 -0.18242188 14.92871094 -0.17578125 13.91601562 C-0.15902344 12.89185547 -0.14226563 11.86769531 -0.125 10.8125 C-0.11597656 9.77673828 -0.10695312 8.74097656 -0.09765625 7.67382812 C-0.0740786 5.11565315 -0.0411703 2.55794252 0 0 Z " fill="#402222" transform="translate(57,160)"/>
<path d="M0 0 C1.258125 -0.020625 2.51625 -0.04125 3.8125 -0.0625 C4.52019531 -0.07410156 5.22789063 -0.08570313 5.95703125 -0.09765625 C8 0 8 0 11 1 C11 1.99 11 2.98 11 4 C9.3203125 5.38671875 9.3203125 5.38671875 7.125 6.6875 C6.40570313 7.12449219 5.68640625 7.56148438 4.9453125 8.01171875 C3 9 3 9 1 9 C0.67 9.66 0.34 10.32 0 11 C0 7 0 7 2 5 C1.34 4.34 0.68 3.68 0 3 C0 2.01 0 1.02 0 0 Z " fill="#2B1D18" transform="translate(32,57)"/>
<path d="M0 0 C7.42857143 -0.28571429 7.42857143 -0.28571429 11 2 C9.02 2.33 7.04 2.66 5 3 C4.67 6.63 4.34 10.26 4 14 C4.99 14.33 5.98 14.66 7 15 C6.01 15.495 6.01 15.495 5 16 C1.60537461 13.73691641 1.04897582 12.84624466 0 9 C0.28112064 6.99199544 0.61067967 4.98985949 1 3 C0.67 2.01 0.34 1.02 0 0 Z " fill="#7B423E" transform="translate(165,99)"/>
<path d="M0 0 C0 2.97 0 5.94 0 9 C-1.98 9.66 -3.96 10.32 -6 11 C-4.68 11.66 -3.36 12.32 -2 13 C-2.66 13 -3.32 13 -4 13 C-4 13.66 -4 14.32 -4 15 C-5.32 14.34 -6.64 13.68 -8 13 C-8.30005745 9.88485812 -8.27027007 8.4043466 -6.50390625 5.76171875 C-5.86324219 5.07722656 -5.22257812 4.39273438 -4.5625 3.6875 C-3.92441406 2.99011719 -3.28632812 2.29273437 -2.62890625 1.57421875 C-1 0 -1 0 0 0 Z " fill="#B09E8A" transform="translate(73,69)"/>
<path d="M0 0 C0.33 0.99 0.66 1.98 1 3 C3.50447516 4.21869929 3.50447516 4.21869929 6 5 C5.56802365 9.7517398 4.67230705 11.92000054 1 15 C1.50712033 11.28111761 2.11608215 8.26545761 4 5 C3.46890625 5.22816406 2.9378125 5.45632812 2.390625 5.69140625 C1.68421875 5.97886719 0.9778125 6.26632813 0.25 6.5625 C-0.44609375 6.85253906 -1.1421875 7.14257812 -1.859375 7.44140625 C-4 8 -4 8 -8 7 C-5.36 4.69 -2.72 2.38 0 0 Z " fill="#806B65" transform="translate(43,73)"/>
<path d="M0 0 C0.99 0 1.98 0 3 0 C3.99 2.97 4.98 5.94 6 9 C5.34 9.66 4.68 10.32 4 11 C3.87625 10.360625 3.7525 9.72125 3.625 9.0625 C3.41875 8.381875 3.2125 7.70125 3 7 C2.34 6.67 1.68 6.34 1 6 C0.87753906 6.56203125 0.75507812 7.1240625 0.62890625 7.703125 C-0.0519869 10.18986519 -0.99352325 12.40514776 -2.0625 14.75 C-2.60583984 15.94882813 -2.60583984 15.94882813 -3.16015625 17.171875 C-3.43730469 17.77515625 -3.71445313 18.3784375 -4 19 C-4.66 17.68 -5.32 16.36 -6 15 C-5.34 15 -4.68 15 -4 15 C-3.896875 14.195625 -3.79375 13.39125 -3.6875 12.5625 C-2.84899627 8.21752614 -1.47178341 4.16542473 0 0 Z " fill="#5B4433" transform="translate(105,57)"/>
<path d="M0 0 C9.20239216 0.41545789 19.77300563 1.89022215 27 8 C22.47481026 8.1970428 18.9267232 7.57800859 14.625 6.1875 C13.49964844 5.82527344 12.37429687 5.46304688 11.21484375 5.08984375 C7.43869311 3.80971492 3.71184761 2.45562651 0 1 C0 0.67 0 0.34 0 0 Z " fill="#1F1E25" transform="translate(152,192)"/>
<path d="M0 0 C-1.44680851 4.70212766 -1.44680851 4.70212766 -3.625 5.875 C-7.17112583 6.0616382 -10.48878133 5.5266828 -14 5 C-14 4.34 -14 3.68 -14 3 C-4.58997722 -1.77676538 -4.58997722 -1.77676538 0 0 Z " fill="#8F776E" transform="translate(46,52)"/>
<path d="M0 0 C1.65 0.33 3.3 0.66 5 1 C4.51098901 7.35714286 4.51098901 7.35714286 2.0625 10.4375 C0 12 0 12 -2 12 C-2 11.34 -2 10.68 -2 10 C-2.66 9.67 -3.32 9.34 -4 9 C-2.68 7.68 -1.36 6.36 0 5 C0 5.99 0 6.98 0 8 C0.66 8 1.32 8 2 8 C1.67 7.236875 1.34 6.47375 1 5.6875 C0 3 0 3 0 0 Z " fill="#776453" transform="translate(153,106)"/>
<path d="M0 0 C1.89492187 0.01353516 1.89492187 0.01353516 3.828125 0.02734375 C4.79234375 0.03894531 5.7565625 0.05054687 6.75 0.0625 C6.75 0.7225 6.75 1.3825 6.75 2.0625 C0.3721448 3.23543889 -5.75321562 4.35780838 -12.25 4.0625 C-11.92 3.0725 -11.59 2.0825 -11.25 1.0625 C-7.70622246 -0.44274531 -3.78293864 -0.03502721 0 0 Z " fill="#4E3B20" transform="translate(117.25,77.9375)"/>
<path d="M0 0 C3.375 0.3125 3.375 0.3125 7 1 C9.4294516 4.6441774 9.16179575 6.71241272 9 11 C8.01 11.495 8.01 11.495 7 12 C6.67 9.03 6.34 6.06 6 3 C4.35 3.33 2.7 3.66 1 4 C0.67 4.99 0.34 5.98 0 7 C-0.99 7.495 -0.99 7.495 -2 8 C-2.20086443 4.28400809 -2.1519437 3.22791555 0 0 Z " fill="#564E2D" transform="translate(167,208)"/>
<path d="M0 0 C0.33 0 0.66 0 1 0 C1.33 3.63 1.66 7.26 2 11 C-0.31 10.34 -2.62 9.68 -5 9 C-4.125 4.25 -4.125 4.25 -3 2 C-2.01 2 -1.02 2 0 2 C0 1.34 0 0.68 0 0 Z " fill="#4E4135" transform="translate(55,86)"/>
<path d="M0 0 C0.66 0 1.32 0 2 0 C2.268125 0.804375 2.53625 1.60875 2.8125 2.4375 C3.204375 3.283125 3.59625 4.12875 4 5 C4.99 5.33 5.98 5.66 7 6 C6.02501855 7.5027237 5.04490611 9.00211963 4.0625 10.5 C3.51722656 11.3353125 2.97195312 12.170625 2.41015625 13.03125 C1.94480469 13.6809375 1.47945313 14.330625 1 15 C0.67 15 0.34 15 0 15 C0 10 0 5 0 0 Z " fill="#9C7F71" transform="translate(75,59)"/>
<path d="M0 0 C3.63 1.32 7.26 2.64 11 4 C11 4.66 11 5.32 11 6 C6.71 6 2.42 6 -2 6 C-2 4.68 -2 3.36 -2 2 C-1.34 2 -0.68 2 0 2 C0 1.34 0 0.68 0 0 Z " fill="#A2857A" transform="translate(169,52)"/>
<path d="M0 0 C0.33 2.64 0.66 5.28 1 8 C-1.64 8.66 -4.28 9.32 -7 10 C-6.4454626 6.67277559 -5.75986957 3.8986087 -4 1 C-2 0 -2 0 0 0 Z " fill="#896F68" transform="translate(133,8)"/>
<path d="M0 0 C1.65 0 3.3 0 5 0 C5 0.66 5 1.32 5 2 C4.34 2 3.68 2 3 2 C3 4.64 3 7.28 3 10 C1.35 9.67 -0.3 9.34 -2 9 C-3 4.25 -3 4.25 -3 2 C-2.34 2 -1.68 2 -1 2 C-0.67 1.34 -0.34 0.68 0 0 Z " fill="#362722" transform="translate(94,6)"/>
<path d="M0 0 C2.31 0 4.62 0 7 0 C7 1.98 7 3.96 7 6 C4.36 6.33 1.72 6.66 -1 7 C-0.67 4.69 -0.34 2.38 0 0 Z " fill="#221E1B" transform="translate(16,212)"/>
<path d="M0 0 C1.65 0 3.3 0 5 0 C5.33 1.65 5.66 3.3 6 5 C2.77208445 7.1519437 1.71599191 7.20086443 -2 7 C-1.125 2.25 -1.125 2.25 0 0 Z " fill="#74603A" transform="translate(99,181)"/>
<path d="M0 0 C0.66 0 1.32 0 2 0 C2.33 0.33 2.66 0.66 3 1 C3.99 0.67 4.98 0.34 6 0 C6 3.96 6 7.92 6 12 C9.63 12 13.26 12 17 12 C17 12.33 17 12.66 17 13 C13.04 13 9.08 13 5 13 C5 12.34 5 11.68 5 11 C4.34 11 3.68 11 3 11 C3.185625 10.236875 3.37125 9.47375 3.5625 8.6875 C4.22819173 5.91032625 4.22819173 5.91032625 3 3 C2.34 3 1.68 3 1 3 C0.67 2.01 0.34 1.02 0 0 Z " fill="#BBA68D" transform="translate(63,98)"/>
<path d="M0 0 C0 0.66 0 1.32 0 2 C1.32 2.33 2.64 2.66 4 3 C2.88625 2.855625 1.7725 2.71125 0.625 2.5625 C-4.24126788 1.95203629 -9.11846586 1.47014775 -14 1 C-13.67 2.65 -13.34 4.3 -13 6 C-14.32 4.68 -15.64 3.36 -17 2 C-16.67 1.01 -16.34 0.02 -16 -1 C-10.49752549 -2.50067487 -5.41157773 -1.51524176 0 0 Z " fill="#3F201B" transform="translate(180,99)"/>
<path d="M0 0 C3.63 0 7.26 0 11 0 C10 3 10 3 7.0625 4.6875 C4 6 4 6 2 6 C0.375 4.5 0.375 4.5 -1 3 C-0.67 2.01 -0.34 1.02 0 0 Z " fill="#9E857B" transform="translate(166,43)"/>
<path d="M0 0 C2 0 2 0 4.125 1.8125 C6 4 6 4 6 7 C-3.41002278 9.29612756 -3.41002278 9.29612756 -8 9 C-5.61426621 7.10786631 -3.92824652 5.97608217 -1 5 C-0.67 3.35 -0.34 1.7 0 0 Z " fill="#3B2A21" transform="translate(48,32)"/>
<path d="M0 0 C1.65 0 3.3 0 5 0 C4.67 2.31 4.34 4.62 4 7 C5.32 7 6.64 7 8 7 C8.33 6.34 8.66 5.68 9 5 C9.33 5.99 9.66 6.98 10 8 C6.33694766 8.74926071 3.57644848 9.2380014 0 8 C0 5.36 0 2.72 0 0 Z " fill="#14120E" transform="translate(0,219)"/>
<path d="M0 0 C0.763125 0.20625 1.52625 0.4125 2.3125 0.625 C2.3125 1.945 2.3125 3.265 2.3125 4.625 C-0.91541555 6.7769437 -1.97150809 6.82586443 -5.6875 6.625 C-5.875 4.25 -5.875 4.25 -5.6875 1.625 C-2.6875 -0.375 -2.6875 -0.375 0 0 Z " fill="#675B36" transform="translate(106.6875,198.375)"/>
<path d="M0 0 C0.33 0 0.66 0 1 0 C1.50310058 1.7907985 2.00238628 3.58266911 2.5 5.375 C2.7784375 6.37273437 3.056875 7.37046875 3.34375 8.3984375 C4 11 4 11 4 13 C-0.41889613 11.64978174 -2.34345343 9.73884332 -5 6 C-3.68 5.67 -2.36 5.34 -1 5 C-0.67 3.35 -0.34 1.7 0 0 Z " fill="#9D8271" transform="translate(139,64)"/>
<path d="M0 0 C0.66 0.33 1.32 0.66 2 1 C0.68 1.99 -0.64 2.98 -2 4 C0.97 4.495 0.97 4.495 4 5 C4 7.62113708 3.68707555 9.50935112 3 12 C3 11.01 3 10.02 3 9 C-0.6208201 7.98617037 -4.27811418 7.50102309 -8 7 C-8 6.34 -8 5.68 -8 5 C-6.3203125 3.67578125 -6.3203125 3.67578125 -4.125 2.3125 C-3.40570313 1.85488281 -2.68640625 1.39726563 -1.9453125 0.92578125 C-1.30335937 0.62027344 -0.66140625 0.31476562 0 0 Z " fill="#816B63" transform="translate(41,61)"/>
<path d="M0 0 C0.33 0 0.66 0 1 0 C1 4.29 1 8.58 1 13 C-1.31 14.32 -3.62 15.64 -6 17 C-6.66 16.34 -7.32 15.68 -8 15 C-5.74740471 11.5084773 -5.29425875 11.07356469 -1 10 C-0.67 6.7 -0.34 3.4 0 0 Z " fill="#866A5C" transform="translate(152,129)"/>
<path d="M0 0 C0.33 0.66 0.66 1.32 1 2 C1.78375 1.649375 2.5675 1.29875 3.375 0.9375 C4.24125 0.628125 5.1075 0.31875 6 0 C6.66 0.33 7.32 0.66 8 1 C7.38461538 6.53846154 7.38461538 6.53846154 5.4375 8.875 C4.7259375 9.431875 4.7259375 9.431875 4 10 C4 7.69 4 5.38 4 3 C2.35 4.32 0.7 5.64 -1 7 C-0.67 4.69 -0.34 2.38 0 0 Z " fill="#816B60" transform="translate(52,71)"/>
<path d="M0 0 C0.66 0 1.32 0 2 0 C1.34 3.96 0.68 7.92 0 12 C0.66 12.33 1.32 12.66 2 13 C2 14.32 2 15.64 2 17 C1.01 17 0.02 17 -1 17 C-3.24881357 11.12809791 -2.98468173 6.96684959 -1 1 C-0.67 0.67 -0.34 0.34 0 0 Z " fill="#563F34" transform="translate(52,65)"/>
<path d="M0 0 C1.65 0 3.3 0 5 0 C5.33 1.32 5.66 2.64 6 4 C5.34 4 4.68 4 4 4 C3.34 6.64 2.68 9.28 2 12 C1.34 12 0.68 12 0 12 C0 8.04 0 4.08 0 0 Z " fill="#A7887B" transform="translate(88,56)"/>
<path d="M0 0 C-3.65270592 1.69877684 -7.31918335 3.36300523 -11 5 C-12.19109375 5.52980469 -12.19109375 5.52980469 -13.40625 6.0703125 C-15.5 6.9375 -15.5 6.9375 -19 8 C-19.99 7.34 -20.98 6.68 -22 6 C-20.86820312 5.57847656 -19.73640625 5.15695313 -18.5703125 4.72265625 C-17.08852006 4.16932869 -15.60675041 3.61594011 -14.125 3.0625 C-13.37863281 2.78470703 -12.63226563 2.50691406 -11.86328125 2.22070312 C-3.28647226 -0.98594168 -3.28647226 -0.98594168 0 0 Z " fill="#533D29" transform="translate(126,155)"/>
<path d="M0 0 C0.33 0.66 0.66 1.32 1 2 C-0.109375 4.78515625 -0.109375 4.78515625 -1.75 8.0625 C-2.28109375 9.14660156 -2.8121875 10.23070313 -3.359375 11.34765625 C-5 14 -5 14 -8 15 C-7.42365861 10.24518354 -5.44931479 7.02951788 -3 3 C-2.34 3 -1.68 3 -1 3 C-0.67 2.01 -0.34 1.02 0 0 Z " fill="#512E20" transform="translate(166,109)"/>
<path d="M0 0 C0.66 0 1.32 0 2 0 C3.3671875 1.828125 3.3671875 1.828125 4.875 4.25 C6.99384476 7.54771181 9.04281036 10.38402455 12 13 C11.01 14.485 11.01 14.485 10 16 C9.62875 15.29875 9.2575 14.5975 8.875 13.875 C6.60200101 10.38973488 4.00582316 7.87223102 1 5 C0.01 5.495 0.01 5.495 -1 6 C-1.042721 4.33388095 -1.04063832 2.66617115 -1 1 C-0.67 0.67 -0.34 0.34 0 0 Z " fill="#5A4231" transform="translate(129,64)"/>
<path d="M0 0 C0.99 0.33 1.98 0.66 3 1 C3 6.28 3 11.56 3 17 C2.34 17 1.68 17 1 17 C0.34 15.35 -0.32 13.7 -1 12 C-0.34 12 0.32 12 1 12 C0.67 8.04 0.34 4.08 0 0 Z " fill="#4A3322" transform="translate(126,60)"/>
<path d="M0 0 C0 0.99 0 1.98 0 3 C-2.07772471 3.86772029 -4.16243177 4.71873619 -6.25 5.5625 C-7.99023438 6.27599609 -7.99023438 6.27599609 -9.765625 7.00390625 C-12.86266644 7.95770524 -14.07321701 8.20983356 -17 7 C-15.68 6.67 -14.36 6.34 -13 6 C-13 5.34 -13 4.68 -13 4 C-12.39671875 3.87882813 -11.7934375 3.75765625 -11.171875 3.6328125 C-10.37265625 3.46523437 -9.5734375 3.29765625 -8.75 3.125 C-7.96109375 2.96257812 -7.1721875 2.80015625 -6.359375 2.6328125 C-4.03168856 2.00849925 -2.10968048 1.15161458 0 0 Z " fill="#4B1B13" transform="translate(197,145)"/>
<path d="M0 0 C0.33 0 0.66 0 1 0 C1 3.63 1 7.26 1 11 C1.66 11 2.32 11 3 11 C3 11.66 3 12.32 3 13 C-0.96 13 -4.92 13 -9 13 C-8.67 11.35 -8.34 9.7 -8 8 C-6.68 8.66 -5.36 9.32 -4 10 C-4 10.66 -4 11.32 -4 12 C-3.01 12 -2.02 12 -1 12 C-0.67 8.04 -0.34 4.08 0 0 Z " fill="#644E39" transform="translate(78,97)"/>
<path d="M0 0 C0.66 0 1.32 0 2 0 C1.67 2.97 1.34 5.94 1 9 C0.05125 9.309375 -0.8975 9.61875 -1.875 9.9375 C-4.86080408 10.87394742 -4.86080408 10.87394742 -7 12 C-6.34 9.03 -5.68 6.06 -5 3 C-3 6 -3 6 -3 8 C-2.01 8 -1.02 8 0 8 C-0.2784375 6.2984375 -0.2784375 6.2984375 -0.5625 4.5625 C-0.706875 3.386875 -0.85125 2.21125 -1 1 C-0.67 0.67 -0.34 0.34 0 0 Z " fill="#32221A" transform="translate(54,74)"/>
<path d="M0 0 C0.33 1.98 0.66 3.96 1 6 C-2.375 6.625 -2.375 6.625 -6 7 C-6.66 6.34 -7.32 5.68 -8 5 C-6.68 5 -5.36 5 -4 5 C-4.33 3.68 -4.66 2.36 -5 1 C-2 0 -2 0 0 0 Z " fill="#54342A" transform="translate(104,162)"/>
<path d="M0 0 C-1.47692308 5.66153846 -1.47692308 5.66153846 -4.125 7.375 C-5.053125 7.684375 -5.053125 7.684375 -6 8 C-5.34 10.64 -4.68 13.28 -4 16 C-4.66 16 -5.32 16 -6 16 C-7.21762731 12.34711807 -7.39075851 9.84245864 -7 6 C-3.48908297 0 -3.48908297 0 0 0 Z " fill="#473320" transform="translate(159,98)"/>
<path d="M0 0 C1.32 0 2.64 0 4 0 C3.25 6.75 3.25 6.75 1 9 C-1.625 8.625 -1.625 8.625 -4 8 C-2.75453595 4.26360784 -1.36595047 3.81243487 2 2 C1.34 1.34 0.68 0.68 0 0 Z " fill="#3A2A21" transform="translate(157,21)"/>
<path d="M0 0 C2.31 1.98 4.62 3.96 7 6 C5 7 3 8 1 9 C1 8.01 1 7.02 1 6 C0.01 5.67 -0.98 5.34 -2 5 C-1.34 3.35 -0.68 1.7 0 0 Z " fill="#372621" transform="translate(66,145)"/>
<path d="M0 0 C2.97 0 5.94 0 9 0 C8.67 1.65 8.34 3.3 8 5 C3.545 5.495 3.545 5.495 -1 6 C-1 5.34 -1 4.68 -1 4 C-0.34 3.67 0.32 3.34 1 3 C0.67 2.01 0.34 1.02 0 0 Z " fill="#4B3932" transform="translate(167,72)"/>
<path d="M0 0 C0.66 0 1.32 0 2 0 C3.66666667 3.33333333 5.33333333 6.66666667 7 10 C5.35 10.33 3.7 10.66 2 11 C0.57741188 7.17679443 -0.24042276 4.08718695 0 0 Z " fill="#594030" transform="translate(140,64)"/>
<path d="M0 0 C-0.99 0.33 -1.98 0.66 -3 1 C-2.67 2.65 -2.34 4.3 -2 6 C-4.375 6.625 -4.375 6.625 -7 7 C-7.66 6.34 -8.32 5.68 -9 5 C-8.34 4.67 -7.68 4.34 -7 4 C-7 2.68 -7 1.36 -7 0 C-4.3333581 -1.33332095 -2.83319697 -0.67102033 0 0 Z " fill="#3B281E" transform="translate(47,45)"/>
<path d="M0 0 C-0.99 0.66 -1.98 1.32 -3 2 C-2.34 2.33 -1.68 2.66 -1 3 C-1 3.99 -1 4.98 -1 6 C-2.32 6.33 -3.64 6.66 -5 7 C-5 6.01 -5 5.02 -5 4 C-6.32 3.34 -7.64 2.68 -9 2 C-9 1.34 -9 0.68 -9 0 C-5.62182575 -0.84454356 -3.32534757 -1.10844919 0 0 Z " fill="#887065" transform="translate(49,41)"/>
<path d="M0 0 C0.99 0.33 1.98 0.66 3 1 C-0.5087188 4.09592835 -3.49197399 5.74194623 -8 7 C-8.33 6.34 -8.66 5.68 -9 5 C-2.25 1.125 -2.25 1.125 0 0 Z " fill="#412523" transform="translate(118,202)"/>
<path d="M0 0 C0.99 0 1.98 0 3 0 C3 0.66 3 1.32 3 2 C1.21385682 3.03046722 -0.57910018 4.04913236 -2.375 5.0625 C-3.87160156 5.91521484 -3.87160156 5.91521484 -5.3984375 6.78515625 C-6.25695312 7.18605469 -7.11546875 7.58695313 -8 8 C-8.66 7.67 -9.32 7.34 -10 7 C-9.67 5.35 -9.34 3.7 -9 2 C-8.67 2.66 -8.34 3.32 -8 4 C-3.70111387 2.48134786 -3.70111387 2.48134786 0 0 Z " fill="#4F1F15" transform="translate(116,181)"/>
<path d="M0 0 C1.42944945 2.35438733 2.08661261 3.48032433 1.625 6.25 C1.41875 6.8275 1.2125 7.405 1 8 C0.34 7.67 -0.32 7.34 -1 7 C-1 5.68 -1 4.36 -1 3 C-2.65 2.67 -4.3 2.34 -6 2 C-6.33 2.99 -6.66 3.98 -7 5 C-7.66 4.34 -8.32 3.68 -9 3 C-6.38997624 -0.48003168 -4.1689578 -0.27793052 0 0 Z " fill="#4A2A11" transform="translate(105,179)"/>
<path d="M0 0 C1.98 0.66 3.96 1.32 6 2 C6 2.66 6 3.32 6 4 C8.97 4.495 8.97 4.495 12 5 C12 6.32 12 7.64 12 9 C9.33333333 7.66666667 6.66666667 6.33333333 4 5 C4 4.34 4 3.68 4 3 C2.68 2.34 1.36 1.68 0 1 C0 0.67 0 0.34 0 0 Z " fill="#582924" transform="translate(76,171)"/>
<path d="M0 0 C4.29 0.33 8.58 0.66 13 1 C13 1.66 13 2.32 13 3 C8.71 3 4.42 3 0 3 C0 2.01 0 1.02 0 0 Z " fill="#796248" transform="translate(88,145)"/>
<path d="M0 0 C1.98 0.66 3.96 1.32 6 2 C4.25 4 4.25 4 2 6 C0.68 6 -0.64 6 -2 6 C-1.34 4.02 -0.68 2.04 0 0 Z " fill="#7A3F36" transform="translate(110,179)"/>
<path d="M0 0 C0.66 0.33 1.32 0.66 2 1 C2 3.97 2 6.94 2 10 C2.99 10.33 3.98 10.66 5 11 C4.01 11.495 4.01 11.495 3 12 C-0.36116483 9.75922345 -1.01952246 8.83277583 -2 5 C-1.125 2.1875 -1.125 2.1875 0 0 Z " fill="#703B30" transform="translate(167,103)"/>
<path d="M0 0 C0.66 1.32 1.32 2.64 2 4 C2.66 3.67 3.32 3.34 4 3 C4 4.32 4 5.64 4 7 C5.32 7.66 6.64 8.32 8 9 C4.37 9 0.74 9 -3 9 C-2.01 8.67 -1.02 8.34 0 8 C0 5.36 0 2.72 0 0 Z " fill="#584430" transform="translate(112,101)"/>
<path d="M0 0 C1.32 0 2.64 0 4 0 C4 0.99 4 1.98 4 3 C3.01 3.495 3.01 3.495 2 4 C1.34444881 6.52733235 1.34444881 6.52733235 1 9 C0.67 8.34 0.34 7.68 0 7 C-0.66 7 -1.32 7 -2 7 C-2.125 4.625 -2.125 4.625 -2 2 C-1.34 1.34 -0.68 0.68 0 0 Z " fill="#261C15" transform="translate(50,83)"/>
<path d="M0 0 C2.96175123 0.61277612 4.38058783 1.25372522 7 3 C7.33 2.34 7.66 1.68 8 1 C8 4.96 8 8.92 8 13 C7.67 13 7.34 13 7 13 C6.938125 11.39125 6.938125 11.39125 6.875 9.75 C6.36684065 5.76388749 6.36684065 5.76388749 2.9375 3.6875 C1.968125 3.130625 0.99875 2.57375 0 2 C0 1.34 0 0.68 0 0 Z " fill="#441811" transform="translate(81,177)"/>
<path d="M0 0 C0.99 0.66 1.98 1.32 3 2 C3.1875 5.125 3.1875 5.125 3 8 C1.35 8.33 -0.3 8.66 -2 9 C-1.34 6.03 -0.68 3.06 0 0 Z " fill="#382519" transform="translate(60,72)"/>
<path d="M0 0 C0.33 0.99 0.66 1.98 1 3 C0.67 3.66 0.34 4.32 0 5 C-4.29 4.34 -8.58 3.68 -13 3 C-13 2.67 -13 2.34 -13 2 C-8.71 2 -4.42 2 0 2 C0 1.34 0 0.68 0 0 Z " fill="#45302A" transform="translate(180,56)"/>
<path d="M0 0 C0.33 0 0.66 0 1 0 C1 2.31 1 4.62 1 7 C-1.97 7.66 -4.94 8.32 -8 9 C-8 8.34 -8 7.68 -8 7 C-6.00669158 5.65668346 -4.00615134 4.32405988 -2 3 C-1.34 2.01 -0.68 1.02 0 0 Z " fill="#492926" transform="translate(215,159)"/>
<path d="M0 0 C0 3.3 0 6.6 0 10 C-0.66 10 -1.32 10 -2 10 C-2 8.02 -2 6.04 -2 4 C-3.98 4 -5.96 4 -8 4 C-5.29881977 1.17603885 -4.05589853 0 0 0 Z " fill="#683A34" transform="translate(67,156)"/>
<path d="M0 0 C0.99 0.33 1.98 0.66 3 1 C3 3.97 3 6.94 3 10 C1.68 10.33 0.36 10.66 -1 11 C-0.73958333 9.01432292 -0.47916667 7.02864583 -0.21875 5.04296875 C0.053233 2.84528294 0.053233 2.84528294 0 0 Z " fill="#764140" transform="translate(214,146)"/>
<path d="M0 0 C0.66 0.33 1.32 0.66 2 1 C0.83857315 5.35535069 -0.07699505 7.64619703 -4 10 C-4.8125 8.375 -4.8125 8.375 -5 6 C-3.53181864 3.75390165 -1.84147142 1.97621323 0 0 Z " fill="#BBA28E" transform="translate(159,114)"/>
<path d="M0 0 C0.66 0.66 1.32 1.32 2 2 C3.31747324 2.69748583 4.64914193 3.36959957 6 4 C4.02 4 2.04 4 0 4 C0.66 5.65 1.32 7.3 2 9 C-0.5 7.8125 -0.5 7.8125 -3 6 C-3.3125 3.3125 -3.3125 3.3125 -3 1 C-2.67 1.66 -2.34 2.32 -2 3 C-1.34 3 -0.68 3 0 3 C0 2.01 0 1.02 0 0 Z " fill="#90786D" transform="translate(166,72)"/>
<path d="M0 0 C0.99 0.66 1.98 1.32 3 2 C2.67 3.65 2.34 5.3 2 7 C0.68 7 -0.64 7 -2 7 C-2.6875 5.1875 -2.6875 5.1875 -3 3 C-1.5625 1.25 -1.5625 1.25 0 0 Z " fill="#BEAA90" transform="translate(110,71)"/>
<path d="M0 0 C0.66 0 1.32 0 2 0 C1.343621 4.48525648 0.29925791 8.66914029 -1 13 C-1.33 12.01 -1.66 11.02 -2 10 C-2.66 10 -3.32 10 -4 10 C-4 9.34 -4 8.68 -4 8 C-3.34 8 -2.68 8 -2 8 C-1.7834375 6.576875 -1.7834375 6.576875 -1.5625 5.125 C-1 2 -1 2 0 0 Z " fill="#634A3C" transform="translate(92,60)"/>
<path d="M0 0 C0.33 0 0.66 0 1 0 C1.98248524 4.0527516 2.08159574 7.83861737 2 12 C-0.79872437 9.47211993 -2.45773019 7.79588866 -3 4 C-2.34 4 -1.68 4 -1 4 C-0.67 2.68 -0.34 1.36 0 0 Z " fill="#927A6B" transform="translate(125,60)"/>
<path d="M0 0 C0.66 0.33 1.32 0.66 2 1 C1.34 1.66 0.68 2.32 0 3 C-0.99 3 -1.98 3 -3 3 C-3.226875 3.639375 -3.45375 4.27875 -3.6875 4.9375 C-5 7 -5 7 -7.625 7.75 C-8.800625 7.87375 -8.800625 7.87375 -10 8 C-10 7.34 -10 6.68 -10 6 C-7.8828125 4.45703125 -7.8828125 4.45703125 -5.125 2.8125 C-4.22007812 2.26207031 -3.31515625 1.71164063 -2.3828125 1.14453125 C-1.20332031 0.57798828 -1.20332031 0.57798828 0 0 Z " fill="#692F28" transform="translate(202,136)"/>
<path d="M0 0 C-0.33 0.66 -0.66 1.32 -1 2 C-4.3 2 -7.6 2 -11 2 C-11.33 2.66 -11.66 3.32 -12 4 C-11.6875 2.0625 -11.6875 2.0625 -11 0 C-6.94952424 -1.35015859 -4.2079832 -0.62084998 0 0 Z " fill="#2B1C17" transform="translate(56,25)"/>
<path d="M0 0 C-0.804375 0.3403125 -0.804375 0.3403125 -1.625 0.6875 C-3.75025221 1.86198149 -5.30246801 3.04815247 -7.125 4.625 C-10 7 -10 7 -12 7 C-9.14032181 0.62071789 -7.11769183 -0.40288822 0 0 Z " fill="#512119" transform="translate(100,171)"/>
<path d="M0 0 C1.98 0.495 1.98 0.495 4 1 C3.56802365 5.7517398 2.67230705 7.92000054 -1 11 C-0.49287967 7.28111761 0.11608215 4.26545761 2 1 C1.34 0.67 0.68 0.34 0 0 Z " fill="#685752" transform="translate(45,77)"/>
<path d="M0 0 C-0.57344937 2.86724686 -0.8614515 3.8614515 -3 6 C-4.65 5.01 -6.3 4.02 -8 3 C-3.5 0 -3.5 0 0 0 Z " fill="#32201B" transform="translate(47,78)"/>
<path d="M0 0 C0.33 0 0.66 0 1 0 C1.19392201 5.52677733 0.7479503 9.75614911 -1 15 C-1.33 15 -1.66 15 -2 15 C-2.05429959 13.25034642 -2.09292823 11.50020213 -2.125 9.75 C-2.15980469 8.28820312 -2.15980469 8.28820312 -2.1953125 6.796875 C-1.99862781 3.9803502 -1.44568916 2.39050964 0 0 Z " fill="#503526" transform="translate(75,61)"/>
<path d="M0 0 C0 0.99 0 1.98 0 3 C-1.28788008 3.53012738 -2.58046678 4.0488329 -3.875 4.5625 C-4.95394531 4.99755859 -4.95394531 4.99755859 -6.0546875 5.44140625 C-8 6 -8 6 -10 5 C-8.71186658 4.16121545 -7.41936744 3.32913217 -6.125 2.5 C-5.40570313 2.0359375 -4.68640625 1.571875 -3.9453125 1.09375 C-2 0 -2 0 0 0 Z " fill="#5C2D26" transform="translate(192,144)"/>
<path d="M0 0 C3.63 0.66 7.26 1.32 11 2 C10.67 2.66 10.34 3.32 10 4 C7.36 4 4.72 4 2 4 C1.67 4.66 1.34 5.32 1 6 C0.67 4.02 0.34 2.04 0 0 Z " fill="#8F786E" transform="translate(166,58)"/>
<path d="M0 0 C-3.75 3 -3.75 3 -6 3 C-6.33 3.99 -6.66 4.98 -7 6 C-7 5.01 -7 4.02 -7 3 C-8.32 2.67 -9.64 2.34 -11 2 C-10.67 1.34 -10.34 0.68 -10 0 C-2.58823529 -1.29411765 -2.58823529 -1.29411765 0 0 Z " fill="#8F766C" transform="translate(170,37)"/>
<path d="M0 0 C1.52519276 0.08937803 3.04681929 0.24537146 4.5625 0.4375 C5.80193359 0.59025391 5.80193359 0.59025391 7.06640625 0.74609375 C7.70449219 0.82988281 8.34257812 0.91367187 9 1 C8 3 8 3 6.15234375 3.6328125 C5.42144531 3.79523437 4.69054687 3.95765625 3.9375 4.125 C3.20402344 4.29257812 2.47054687 4.46015625 1.71484375 4.6328125 C1.14894531 4.75398438 0.58304688 4.87515625 0 5 C-0.5625 3.0625 -0.5625 3.0625 -1 1 C-0.67 0.67 -0.34 0.34 0 0 Z " fill="#957B73" transform="translate(160,32)"/>
<path d="M0 0 C3.91593446 0.78318689 7.36406635 2.39179858 11 4 C8.3260876 4.89130413 5.76276177 5.47731534 3 6 C0 2.25 0 2.25 0 0 Z " fill="#7E6D65" transform="translate(58,16)"/>
<path d="M0 0 C1.98 0.99 3.96 1.98 6 3 C5.01 3.66 4.02 4.32 3 5 C2.27034634 7.56282742 2.27034634 7.56282742 2 10 C0.68 9.67 -0.64 9.34 -2 9 C-1.01 9 -0.02 9 1 9 C0.67 6.03 0.34 3.06 0 0 Z " fill="#826B60" transform="translate(96,7)"/>
<path d="M0 0 C0.99 0.33 1.98 0.66 3 1 C2 3 2 3 -0.36328125 3.88671875 C-1.33652344 4.15097656 -2.30976563 4.41523438 -3.3125 4.6875 C-4.27800781 4.95949219 -5.24351562 5.23148438 -6.23828125 5.51171875 C-8.95205711 5.99152353 -10.43665005 5.90721887 -13 5 C-12.22914063 4.80664062 -11.45828125 4.61328125 -10.6640625 4.4140625 C-9.66117188 4.15367187 -8.65828125 3.89328125 -7.625 3.625 C-6.62726563 3.36976563 -5.62953125 3.11453125 -4.6015625 2.8515625 C-1.87458985 2.17595681 -1.87458985 2.17595681 0 0 Z " fill="#472928" transform="translate(185,171)"/>
<path d="M0 0 C-3.0684847 2.97550031 -4.46236331 3.96474513 -8.8125 4.25 C-9.864375 4.1675 -10.91625 4.085 -12 4 C-9.8923766 -0.2152468 -4.26296995 -1.87570678 0 0 Z " fill="#56241F" transform="translate(184,151)"/>
<path d="M0 0 C-1.0975223 2.99324263 -1.67682892 3.84610901 -4.625 5.25 C-5.40875 5.4975 -6.1925 5.745 -7 6 C-7 5.34 -7 4.68 -7 4 C-7.99 3.67 -8.98 3.34 -10 3 C-3.375 0 -3.375 0 0 0 Z " fill="#54201A" transform="translate(188,122)"/>
<path d="M0 0 C0.33 0.99 0.66 1.98 1 3 C-2.51187196 5.40814077 -4.72656908 6.36629408 -9 6 C-6.45543849 3.03134491 -3.51005335 1.6380249 0 0 Z " fill="#6A5236" transform="translate(133,111)"/>
<path d="M0 0 C0.99 0.33 1.98 0.66 3 1 C2.34 3.31 1.68 5.62 1 8 C0.01 6.68 -0.98 5.36 -2 4 C-1.34 2.68 -0.68 1.36 0 0 Z " fill="#B8A68C" transform="translate(160,100)"/>
<path d="M0 0 C0.33 0 0.66 0 1 0 C1 2.97 1 5.94 1 9 C0.67 8.34 0.34 7.68 0 7 C-0.99 7 -1.98 7 -3 7 C-2.25 2.25 -2.25 2.25 0 0 Z " fill="#A89282" transform="translate(72,69)"/>
<path d="M0 0 C0.33 0 0.66 0 1 0 C1.3125 2.1875 1.3125 2.1875 1 5 C-1.5 7.8125 -1.5 7.8125 -4 10 C-4.66 9.67 -5.32 9.34 -6 9 C-5.02501855 7.4972763 -4.04490611 5.99788037 -3.0625 4.5 C-2.51722656 3.6646875 -1.97195312 2.829375 -1.41015625 1.96875 C-0.94480469 1.3190625 -0.47945313 0.669375 0 0 Z " fill="#B39C8B" transform="translate(85,63)"/>
<path d="M0 0 C2.79872437 2.52788007 4.45773019 4.20411134 5 8 C3.68 7.67 2.36 7.34 1 7 C0.67 7.66 0.34 8.32 0 9 C0 6.03 0 3.06 0 0 Z " fill="#8C736D" transform="translate(116,7)"/>
<path d="M0 0 C0.33 0.99 0.66 1.98 1 3 C1.99 3.33 2.98 3.66 4 4 C5.6875 6.5625 5.6875 6.5625 7 9 C2.25 8.25 2.25 8.25 0 6 C-0.125 2.875 -0.125 2.875 0 0 Z " fill="#605A35" transform="translate(166,212)"/>
<path d="M0 0 C5.28798182 0.41474367 8.11690718 1.35224614 12 5 C11.67 5.66 11.34 6.32 11 7 C7.57732245 5.79743762 5.44315801 4.66526328 3 2 C2.01 1.34 1.02 0.68 0 0 Z " fill="#683836" transform="translate(192,104)"/>
<path d="M0 0 C0.33 0.66 0.66 1.32 1 2 C0.5359375 3.1446875 0.5359375 3.1446875 0.0625 4.3125 C-1.04184216 7.10583605 -1.1696523 9.03108472 -1 12 C-1.66 11.01 -2.32 10.02 -3 9 C-3.66 9.66 -4.32 10.32 -5 11 C-4.46884894 6.48521602 -2.63379708 3.65333143 0 0 Z " fill="#988574" transform="translate(153,98)"/>
<path d="M0 0 C0.66 0 1.32 0 2 0 C2 3.3 2 6.6 2 10 C1.67 9.01 1.34 8.02 1 7 C-0.32 7 -1.64 7 -3 7 C-2.67 6.01 -2.34 5.02 -2 4 C-1.34 4.33 -0.68 4.66 0 5 C0 3.35 0 1.7 0 0 Z " fill="#51392B" transform="translate(153,68)"/>
<path d="M0 0 C0.33 1.32 0.66 2.64 1 4 C0.34 4 -0.32 4 -1 4 C-1 5.98 -1 7.96 -1 10 C-2.98 10 -4.96 10 -7 10 C-6.01 9.67 -5.02 9.34 -4 9 C-2.77479736 5.99152582 -2.77479736 5.99152582 -2 3 C-1.34 3 -0.68 3 0 3 C0 2.01 0 1.02 0 0 Z " fill="#37251D" transform="translate(76,11)"/>
<path d="M0 0 C1.65 0 3.3 0 5 0 C8 5.75 8 5.75 8 8 C7.34 8 6.68 8 6 8 C4.4921875 6.25 4.4921875 6.25 2.875 4 C2.33617188 3.2575 1.79734375 2.515 1.2421875 1.75 C0.62730469 0.88375 0.62730469 0.88375 0 0 Z " fill="#462F25" transform="translate(120,13)"/>
<path d="M0 0 C2.64 0 5.28 0 8 0 C7.67 0.99 7.34 1.98 7 3 C5.02 3 3.04 3 1 3 C0.67 2.01 0.34 1.02 0 0 Z " fill="#383431" transform="translate(4,216)"/>
<path d="M0 0 C0.33 0 0.66 0 1 0 C1 3.96 1 7.92 1 12 C1.66 12.33 2.32 12.66 3 13 C2.01 13 1.02 13 0 13 C0 10.36 0 7.72 0 5 C-0.99 4.67 -1.98 4.34 -3 4 C-2.02727325 2.64664105 -1.0260734 1.31337396 0 0 Z " fill="#9C8774" transform="translate(97,66)"/>
<path d="M0 0 C0 1.98 0 3.96 0 6 C-0.391875 5.525625 -0.78375 5.05125 -1.1875 4.5625 C-3.40808374 2.64820367 -5.13375709 2.38733012 -8 2 C-7 0 -7 0 -5.125 -0.6875 C-3 -1 -3 -1 0 0 Z " fill="#794237" transform="translate(108,177)"/>
<path d="M0 0 C2.95409701 1.37154504 5.44008376 2.98863724 8 5 C5.69 5 3.38 5 1 5 C0.67 3.35 0.34 1.7 0 0 Z " fill="#634D34" transform="translate(61,112)"/>
<path d="M0 0 C0.99 0.99 1.98 1.98 3 3 C2.67 3.66 2.34 4.32 2 5 C1.01 5.33 0.02 5.66 -1 6 C-1.33 6.66 -1.66 7.32 -2 8 C-2.66 8 -3.32 8 -4 8 C-2.25 2.25 -2.25 2.25 0 0 Z " fill="#A28C7A" transform="translate(160,96)"/>
<path d="M0 0 C0.33 0.66 0.66 1.32 1 2 C0.67 2.66 0.34 3.32 0 4 C0.66 4 1.32 4 2 4 C1.34 5.32 0.68 6.64 0 8 C-0.66 8 -1.32 8 -2 8 C-2 5.69 -2 3.38 -2 1 C-1.34 0.67 -0.68 0.34 0 0 Z " fill="#452E1A" transform="translate(89,70)"/>
<path d="M0 0 C2.97 0.495 2.97 0.495 6 1 C6 1.99 6 2.98 6 4 C4.35 4.66 2.7 5.32 1 6 C1.33 4.35 1.66 2.7 2 1 C1.34 0.67 0.68 0.34 0 0 Z " fill="#442F25" transform="translate(37,57)"/>
<path d="M0 0 C1.65 0.33 3.3 0.66 5 1 C5 1.66 5 2.32 5 3 C0.71 3 -3.58 3 -8 3 C-8 2.67 -8 2.34 -8 2 C-5.36 2 -2.72 2 0 2 C0 1.34 0 0.68 0 0 Z " fill="#846B65" transform="translate(175,55)"/>
<path d="M0 0 C2.64 0 5.28 0 8 0 C8 0.66 8 1.32 8 2 C5.36 2.33 2.72 2.66 0 3 C0 2.01 0 1.02 0 0 Z " fill="#403D39" transform="translate(15,216)"/>
<path d="M0 0 C2.64 0 5.28 0 8 0 C8 0.33 8 0.66 8 1 C6.02 1.33 4.04 1.66 2 2 C2.33 3.65 2.66 5.3 3 7 C1.68 5.68 0.36 4.36 -1 3 C-0.67 2.01 -0.34 1.02 0 0 Z " fill="#4D2920" transform="translate(164,98)"/>
<path d="M0 0 C0.99 0.33 1.98 0.66 3 1 C2.34 2.65 1.68 4.3 1 6 C0.67 5.34 0.34 4.68 0 4 C-2.64 4 -5.28 4 -8 4 C-8 3.67 -8 3.34 -8 3 C-5.69 3 -3.38 3 -1 3 C-0.67 2.01 -0.34 1.02 0 0 Z " fill="#AF9A81" transform="translate(124,74)"/>
<path d="M0 0 C0.66 0 1.32 0 2 0 C2 1.65 2 3.3 2 5 C2.66 5.33 3.32 5.66 4 6 C2.35 7.65 0.7 9.3 -1 11 C-0.67 7.37 -0.34 3.74 0 0 Z " fill="#907768" transform="translate(65,65)"/>
<path d="M0 0 C0.66 0 1.32 0 2 0 C2 2.97 2 5.94 2 9 C0.10786631 6.61426621 -1.02391783 4.92824652 -2 2 C-1.34 2 -0.68 2 0 2 C0 1.34 0 0.68 0 0 Z " fill="#9E8476" transform="translate(110,57)"/>
<path d="M0 0 C0.99 0.33 1.98 0.66 3 1 C-0.625 5.875 -0.625 5.875 -4 7 C-4 4 -4 4 -2 1.8125 C-1.34 1.214375 -0.68 0.61625 0 0 Z " fill="#C4A791" transform="translate(132,145)"/>
<path d="M0 0 C0.99 0 1.98 0 3 0 C3 2.66666667 3 5.33333333 3 8 C1.5 6.8125 1.5 6.8125 0 5 C-0.1875 2.3125 -0.1875 2.3125 0 0 Z " fill="#91786E" transform="translate(155,73)"/>
<path d="M0 0 C1.32 0.33 2.64 0.66 4 1 C1.525 4.465 1.525 4.465 -1 8 C-2.2077558 4.37673261 -1.54311128 3.35853631 0 0 Z " fill="#978070" transform="translate(93,63)"/>
<path d="M0 0 C0.66 0 1.32 0 2 0 C1.67 1.98 1.34 3.96 1 6 C-0.65 6 -2.3 6 -4 6 C-2.7260411 3.96166576 -1.38938077 1.96147874 0 0 Z " fill="#2E221A" transform="translate(148,15)"/>
<path d="M0 0 C0.66 0.33 1.32 0.66 2 1 C2 2.32 2 3.64 2 5 C0.68 5.33 -0.64 5.66 -2 6 C-2.33 4.68 -2.66 3.36 -3 2 C-2.01 1.34 -1.02 0.68 0 0 Z " fill="#82685D" transform="translate(110,161)"/>
<path d="M0 0 C0.33 0.66 0.66 1.32 1 2 C1.99 2.33 2.98 2.66 4 3 C3.67 3.99 3.34 4.98 3 6 C0.53199953 4.84826645 -1.04783565 3.95216435 -3 2 C-2.01 1.34 -1.02 0.68 0 0 Z " fill="#B69E86" transform="translate(79,151)"/>
<path d="M0 0 C0.99 0.66 1.98 1.32 3 2 C1.68 4.31 0.36 6.62 -1 9 C-2.0326802 6.21176345 -2.04509293 5.1322726 -1.0625 2.25 C-0.711875 1.5075 -0.36125 0.765 0 0 Z " fill="#5E4532" transform="translate(144,128)"/>
<path d="M0 0 C0.33 0.66 0.66 1.32 1 2 C0.01 3.485 0.01 3.485 -1 5 C-2.65 4.67 -4.3 4.34 -6 4 C-4 1 -4 1 -1.875 0.3125 C-1.25625 0.209375 -0.6375 0.10625 0 0 Z " fill="#9C8378" transform="translate(49,73)"/>
<path d="M0 0 C0.66 0 1.32 0 2 0 C1.34 2.64 0.68 5.28 0 8 C-0.66 8 -1.32 8 -2 8 C-2.20086443 4.28400809 -2.1519437 3.22791555 0 0 Z " fill="#9B7F74" transform="translate(90,60)"/>
<path d="M0 0 C0.598125 0.20625 1.19625 0.4125 1.8125 0.625 C1.8125 1.285 1.8125 1.945 1.8125 2.625 C-0.1675 3.285 -2.1475 3.945 -4.1875 4.625 C-4.5175 3.635 -4.8475 2.645 -5.1875 1.625 C-2.1875 -0.375 -2.1875 -0.375 0 0 Z " fill="#2D1E1B" transform="translate(38.1875,50.375)"/>
<path d="M0 0 C1.98 0.99 1.98 0.99 4 2 C4 3.32 4 4.64 4 6 C3.01 6 2.02 6 1 6 C0.67 4.02 0.34 2.04 0 0 Z " fill="#1E1D25" transform="translate(71,230)"/>
<path d="M0 0 C1.65 0 3.3 0 5 0 C5.33 0.99 5.66 1.98 6 3 C4.02 3 2.04 3 0 3 C0 2.01 0 1.02 0 0 Z " fill="#34302E" transform="translate(0,208)"/>
<path d="M0 0 C1.20628008 2.33214148 2.1654738 4.49642139 3 7 C0.69 6.67 -1.62 6.34 -4 6 C-3.01 5.67 -2.02 5.34 -1 5 C-0.67 3.35 -0.34 1.7 0 0 Z " fill="#5D332C" transform="translate(98,201)"/>
<path d="M0 0 C0 0.99 0 1.98 0 3 C-0.99 3.66 -1.98 4.32 -3 5 C-3.99 4.67 -4.98 4.34 -6 4 C-6 3.01 -6 2.02 -6 1 C-4.02 0.67 -2.04 0.34 0 0 Z " fill="#63322E" transform="translate(126,195)"/>
<path d="M0 0 C0.78375 0.04125 1.5675 0.0825 2.375 0.125 C2.375 0.785 2.375 1.445 2.375 2.125 C3.035 2.455 3.695 2.785 4.375 3.125 C1.405 2.795 -1.565 2.465 -4.625 2.125 C-2.625 0.125 -2.625 0.125 0 0 Z " fill="#211E23" transform="translate(147.625,188.875)"/>
<path d="M0 0 C0.99 0 1.98 0 3 0 C3 0.66 3 1.32 3 2 C3.66 2.33 4.32 2.66 5 3 C3.02 3.66 1.04 4.32 -1 5 C-0.67 3.35 -0.34 1.7 0 0 Z " fill="#713E3A" transform="translate(70,152)"/>
<path d="M0 0 C0.33 0 0.66 0 1 0 C1.33 2.31 1.66 4.62 2 7 C-0.475 6.01 -0.475 6.01 -3 5 C-3 4.34 -3 3.68 -3 3 C-2.01 3 -1.02 3 0 3 C0 2.01 0 1.02 0 0 Z " fill="#8A7568" transform="translate(141,70)"/>
<path d="M0 0 C1.98 0.495 1.98 0.495 4 1 C4 3.15634036 3.5534764 4.92446352 3 7 C3 6.01 3 5.02 3 4 C1.68 3.67 0.36 3.34 -1 3 C-0.67 2.01 -0.34 1.02 0 0 Z " fill="#93796D" transform="translate(41,66)"/>
<path d="M0 0 C0.99 0.33 1.98 0.66 3 1 C2.34 1 1.68 1 1 1 C1 2.32 1 3.64 1 5 C0.34 5 -0.32 5 -1 5 C-1.33 5.66 -1.66 6.32 -2 7 C-2.66 6.67 -3.32 6.34 -4 6 C-4 5.34 -4 4.68 -4 4 C-2.68 3.67 -1.36 3.34 0 3 C0 2.01 0 1.02 0 0 Z " fill="#9A7E70" transform="translate(85,55)"/>
<path d="M0 0 C3.3 0 6.6 0 10 0 C9.67 0.99 9.34 1.98 9 3 C8.01 3.33 7.02 3.66 6 4 C6 3.01 6 2.02 6 1 C4.02 1 2.04 1 0 1 C0 0.67 0 0.34 0 0 Z " fill="#89766F" transform="translate(167,43)"/>
</svg>
