<?xml version="1.0" encoding="UTF-8"?>
<svg version="1.1" xmlns="http://www.w3.org/2000/svg" width="1254" height="1254">
<path d="M0 0 C413.82 0 827.64 0 1254 0 C1254 413.82 1254 827.64 1254 1254 C840.18 1254 426.36 1254 0 1254 C0 840.18 0 426.36 0 0 Z " fill="#BDBDBD" transform="translate(0,0)"/>
<path d="M0 0 C2.39310946 2.31591238 4.68680833 4.63107082 6.84375 7.171875 C24.96908023 28.40826937 52.02654739 42.08541335 78.9375 48.1875 C79.61578857 48.34234863 80.29407715 48.49719727 80.99291992 48.65673828 C92.86292428 51.19685564 104.59835612 52.28663283 116.72440338 52.27439499 C118.90911444 52.27340064 121.09337057 52.2867074 123.27801514 52.30337524 C129.47860156 52.34875507 135.67913519 52.37413867 141.87988281 52.38085938 C174.19688924 52.4315457 206.40118506 54.75620168 236 69 C233.95411811 55.24899056 216.24897515 40.80001755 205.83935547 32.87353516 C198.09086294 27.23044333 189.67123353 23.03156052 181 19 C181 18.67 181 18.34 181 18 C188.29229167 17.69428124 195.1468806 18.83279948 202.3125 20.125 C203.55201416 20.34800781 204.79152832 20.57101563 206.06860352 20.80078125 C216.37412061 22.73486054 226.14898457 25.448358 236 29 C237.08023438 29.36480469 238.16046875 29.72960937 239.2734375 30.10546875 C254.58115235 35.55564486 269.96546389 43.26534645 283 53 C283.53995605 53.39622559 284.07991211 53.79245117 284.63623047 54.20068359 C315.883466 77.25134622 315.883466 77.25134622 320.765625 92.37109375 C320.84296875 92.90863281 320.9203125 93.44617188 321 94 C321.66 94 322.32 94 323 94 C322.42385418 63.06555145 322.42385418 63.06555145 313 34 C312.59116634 32.67059531 312.19685852 31.33668633 311.8125 30 C309.65372576 23.15997075 305.66427938 17.11873731 302 11 C306.01877833 12.68592652 309.11487385 15.42978248 312.375 18.25 C312.98569336 18.77795166 313.59638672 19.30590332 314.22558594 19.84985352 C340.64946845 42.98258937 360.45824057 71.29879271 368 106 C368.19464844 106.85207031 368.38929688 107.70414062 368.58984375 108.58203125 C369.13867486 111.8175213 369.34832318 115.03865427 369.5625 118.3125 C369.64628906 119.56675781 369.73007812 120.82101563 369.81640625 122.11328125 C369.87699219 123.06589844 369.93757812 124.01851563 370 125 C370.44988281 124.33355469 370.89976562 123.66710937 371.36328125 122.98046875 C388.67588351 98.17383424 414.25339904 83.2037718 443.80957031 77.81176758 C446.58307896 77.33438919 449.17994714 77 452 77 C452 77.66 452 78.32 452 79 C451.36835937 79.17273438 450.73671875 79.34546875 450.0859375 79.5234375 C429.72866156 85.91808614 413.34643008 103.86638466 403.703125 122.30859375 C401.73493273 126.17474688 399.85446433 130.0781864 398 134 C397.67 134.66 397.34 135.32 397 136 C398.02996094 135.96519531 399.05992187 135.93039063 400.12109375 135.89453125 C444.42537696 134.8485528 486.71250216 160.40479001 518.09570312 189.97460938 C527.25479435 198.72735228 535.67170882 207.64676307 543 218 C542.67 218.66 542.34 219.32 542 220 C541.42894531 219.443125 540.85789062 218.88625 540.26953125 218.3125 C530.43471222 209.05619974 519.64335059 202.67215494 507 198 C505.83017578 197.55527344 505.83017578 197.55527344 504.63671875 197.1015625 C495.91066968 193.97072429 487.24696609 192.69682078 478 193 C478.57363281 193.42925781 479.14726563 193.85851562 479.73828125 194.30078125 C494.14445455 205.55901987 507.61114295 218.9297444 518 234 C518.44827148 234.63631348 518.89654297 235.27262695 519.35839844 235.92822266 C529.19542953 249.93984797 537.52635593 264.7980908 545.62109375 279.8671875 C554.01330804 295.42259598 563.65744533 309.32010863 576 322 C576.55429687 322.62777344 577.10859375 323.25554687 577.6796875 323.90234375 C590.79579363 338.34365231 610.94214617 348.10054839 630 351 C625.38757826 354.07494783 620.37636934 354.83072564 615 356 C614.36674805 356.14115234 613.73349609 356.28230469 613.08105469 356.42773438 C594.28258477 360.49475528 574.68548982 360.65564393 556 356 C554.79988281 355.71382813 553.59976563 355.42765625 552.36328125 355.1328125 C549.56675111 354.45073198 546.7809388 353.74263707 544 353 C544.53109375 354.0621875 545.0621875 355.124375 545.609375 356.21875 C549.859375 364.71875 549.859375 364.71875 550.93164062 366.8671875 C551.63449613 368.27032865 552.34142093 369.67144005 553.05273438 371.0703125 C568.02474784 400.61508575 579.15838973 435.59976277 578 469 C575.56253146 466.56253146 575.01851004 464.5631072 573.875 461.3125 C567.24257951 443.74240363 556.82651408 429.60306712 544 416 C544.08564209 416.58265625 544.17128418 417.1653125 544.25952148 417.765625 C547.06395853 437.03500473 547.06395853 437.03500473 547.4375 446 C548.71913813 469.79494192 554.23031849 495.2999381 568 515 C568.75937125 516.13089676 569.5159871 517.26364969 570.26953125 518.3984375 C570.84058594 519.25695312 571.41164063 520.11546875 572 521 C566.62550394 520.47423408 562.83336729 518.59163403 558.25 515.9375 C557.54190186 515.53047852 556.83380371 515.12345703 556.10424805 514.70410156 C547.32506784 509.55461095 540.10036534 503.24202878 532.875 496.125 C532.29339111 495.55297852 531.71178223 494.98095703 531.11254883 494.39160156 C527 490.24497255 527 490.24497255 527 488 C526.34 488 525.68 488 525 488 C524.56726911 509.70145404 524.31615888 530.68132353 529 552 C529.19110352 552.8755957 529.38220703 553.75119141 529.57910156 554.65332031 C530.04599075 556.7703787 530.52196106 558.88543137 531 561 C530.34 561 529.68 561 529 561 C527.56596998 559.03484775 526.28405221 557.06322941 525 555 C524.47019531 554.17628906 523.94039062 553.35257813 523.39453125 552.50390625 C521.57970509 549.67950792 519.78794173 546.84148159 518 544 C517.41089844 543.07832031 516.82179688 542.15664063 516.21484375 541.20703125 C515.39693359 539.89798828 515.39693359 539.89798828 514.5625 538.5625 C514.06878906 537.78003906 513.57507813 536.99757813 513.06640625 536.19140625 C512 534 512 534 512 530 C511.34 530 510.68 530 510 530 C510.061875 531.7634375 510.061875 531.7634375 510.125 533.5625 C510.05548263 548.57825297 506.17248925 563.40836231 503 578 C500.89643646 575.89643646 500.31015223 574.58977478 499.265625 571.8515625 C498.94142578 571.01592773 498.61722656 570.18029297 498.28320312 569.31933594 C497.94224609 568.43020508 497.60128906 567.54107422 497.25 566.625 C494.21243857 558.84717068 490.951587 551.36432123 487 544 C487.144375 544.515625 487.28875 545.03125 487.4375 545.5625 C492.6594579 568.19098422 490.70833452 598.9076386 478.88671875 619.15625 C472.90960039 628.16523999 465.87176196 636.24220302 458.53515625 644.16015625 C452.82230826 650.5596023 447.59584346 657.41248947 442.55078125 664.34765625 C432.17874033 678.55858497 432.17874033 678.55858497 424 681 C420.89050702 681.23203 417.803322 681.18893952 414.6875 681.125 C413.85154297 681.11597656 413.01558594 681.10695313 412.15429688 681.09765625 C410.10274031 681.07420989 408.05133223 681.03834266 406 681 C405.91363281 681.6084375 405.82726562 682.216875 405.73828125 682.84375 C404.45742265 690.8344275 402.12392499 698.37351458 399.62597656 706.04394531 C398.40619608 709.85552146 397.30388412 713.70393737 396.1875 717.546875 C392.82664639 727.31988353 388.36159382 736.54947511 383.6875 745.75 C383.13771484 746.84054687 382.58792969 747.93109375 382.02148438 749.0546875 C380.68469154 751.70502459 379.34416816 754.35339806 378 757 C376.8001463 752.95466941 377.45067744 750.30583949 378.4375 746.1875 C380.19200037 738.37146814 380.30607005 730.99182902 380 723 C379.38125 723.90878906 379.38125 723.90878906 378.75 724.8359375 C373.8810839 731.90021309 368.71563959 738.68307433 363.1171875 745.1875 C360.13903607 749.14371592 357.75867267 753.38806803 355.3125 757.6875 C354.81427734 758.55439453 354.31605469 759.42128906 353.80273438 760.31445312 C350.07821782 766.61175019 350.07821782 766.61175019 348.4375 773.625 C348.35371094 774.44226563 348.26992188 775.25953125 348.18359375 776.1015625 C348.12300781 776.72804688 348.06242188 777.35453125 348 778 C348.93457031 778.09796875 349.86914062 778.1959375 350.83203125 778.296875 C358.23949153 779.12105703 365.52298795 780.21410825 372.80859375 781.79296875 C373.62314026 781.96738998 374.43768677 782.14181122 375.2769165 782.32151794 C377.85243675 782.87581603 380.42640902 783.43681675 383 784 C383.82384186 784.17956238 384.64768372 784.35912476 385.49649048 784.54412842 C404.7299725 788.75337327 423.87588098 793.11319257 442.4375 799.75 C444.27199707 800.40270874 444.27199707 800.40270874 446.14355469 801.06860352 C466.1036595 808.47727202 466.1036595 808.47727202 470 815 C470.68037944 821.57700121 469.1058035 826.81002087 467 833 C466.6611377 834.02818848 466.32227539 835.05637695 465.97314453 836.11572266 C464.92230553 839.29316427 463.85932953 842.46618225 462.79260254 845.63830566 C461.22619089 850.3056961 459.67294328 854.97748682 458.1171875 859.6484375 C456.02060002 865.94308282 453.92232648 872.23712157 451.8125 878.52734375 C448.65458208 887.95079944 445.52207927 897.38102306 442.5078125 906.8515625 C442.25192352 907.65008636 441.99603455 908.44861023 441.73239136 909.27133179 C440.45584314 913.06129233 440.45584314 913.06129233 440 917 C440.54938232 917.07516846 441.09876465 917.15033691 441.66479492 917.2277832 C444.17413221 917.57779409 446.68067011 917.94497789 449.1875 918.3125 C450.48397461 918.48942383 450.48397461 918.48942383 451.80664062 918.66992188 C460.29662042 919.93853955 460.29662042 919.93853955 464 923 C465.4765625 925.26953125 465.4765625 925.26953125 466.625 927.8125 C467.04652344 928.69808594 467.46804688 929.58367188 467.90234375 930.49609375 C468.74647199 932.42166742 469.48967665 934.39171258 470.1875 936.375 C472.18432672 939.26695594 472.84080387 939.55995566 476.00390625 940.75 C476.90858643 941.09466309 477.8132666 941.43932617 478.74536133 941.79443359 C480.35640747 942.39118896 480.35640747 942.39118896 482 943 C483.27580162 943.47823349 484.55142565 943.95694093 485.8269043 944.43603516 C488.80257164 945.55120158 491.78010272 946.6612342 494.75878906 947.76831055 C512.27764161 954.2815681 529.71851872 960.97496971 547.11300659 967.81298828 C562.81972153 973.98682946 578.55624111 980.07875444 594.3125 986.125 C663.99836493 1012.88275034 663.99836493 1012.88275034 685 1022 C685.79180664 1022.33902344 686.58361328 1022.67804687 687.39941406 1023.02734375 C719.38701479 1036.82644302 744.50517484 1063.72911121 757.79248047 1095.91992188 C758.90777748 1098.84554485 759.91244491 1101.80204486 760.8984375 1104.7734375 C761.91562307 1107.75285339 763.09191954 1110.56505535 764.375 1113.4375 C773.62432528 1135.50456309 778.56224008 1159.70395687 784.44229126 1182.83590698 C784.81253382 1184.27256968 785.19525018 1185.70607831 785.59066772 1187.13601685 C786.73851667 1191.38772183 787 1194.46840963 787 1199 C408.82 1199 30.64 1199 -359 1199 C-356.51075557 1189.04302228 -354.00395867 1179.26742031 -350.9375 1169.5 C-350.55899902 1168.28820068 -350.18049805 1167.07640137 -349.79052734 1165.82788086 C-346.70892709 1156.02564382 -343.449303 1146.28478427 -340.125 1136.5625 C-339.77294998 1135.52778564 -339.77294998 1135.52778564 -339.41378784 1134.47216797 C-338.74177713 1132.50182536 -338.06348313 1130.53377183 -337.3828125 1128.56640625 C-336.99496582 1127.44177979 -336.60711914 1126.31715332 -336.20751953 1125.15844727 C-334.99362466 1121.98332435 -333.54521239 1119.02507799 -332 1116 C-331.24133154 1113.90628952 -330.51367765 1111.80115827 -329.8125 1109.6875 C-322.01150478 1087.58856131 -309.96910627 1069.10589011 -294 1052 C-293.30132812 1051.2471875 -292.60265625 1050.494375 -291.8828125 1049.71875 C-276.05195032 1033.25001425 -256.16567256 1022.97882901 -234.9375 1015.125 C-233.93984619 1014.75334717 -232.94219238 1014.38169434 -231.91430664 1013.9987793 C-217.05235244 1008.49698241 -202.10558567 1003.22540239 -187.17582703 997.91127014 C-143.47313138 982.35481223 -99.98092808 966.29521067 -56.62109375 949.80859375 C-55.54015442 949.39761948 -54.45921509 948.9866452 -53.34552002 948.56321716 C-52.3065155 948.16780228 -51.26751099 947.77238739 -50.19702148 947.36499023 C-48.68421097 946.79069778 -48.68421097 946.79069778 -47.14083862 946.20480347 C-44.89947101 945.34503071 -42.6632778 944.47171821 -40.43069458 943.58938599 C-39.26513031 943.13071136 -38.09956604 942.67203674 -36.89868164 942.19946289 C-35.84080948 941.77879044 -34.78293732 941.35811798 -33.69300842 940.92469788 C-31 940 -31 940 -28 940 C-27.84144531 939.45472656 -27.68289063 938.90945313 -27.51953125 938.34765625 C-23.11000516 924.09587305 -23.11000516 924.09587305 -17.125 920.0625 C-11.06708043 918.05674587 -4.32558863 917.69198846 2 917 C0.64068237 908.60516267 -1.93114075 900.73321984 -4.68359375 892.70703125 C-5.14483798 891.34819527 -5.60560896 889.98919856 -6.06593323 888.63005066 C-7.02620407 885.79900106 -7.99056908 882.96939362 -8.95825195 880.14086914 C-10.19275626 876.53207495 -11.41928267 872.92063392 -12.64305019 869.30818653 C-13.59217279 866.50800805 -14.54429208 863.70885623 -15.49742317 860.9100399 C-15.95053114 859.57911277 -16.40301124 858.2479717 -16.85482597 856.916605 C-19.03269794 850.50690966 -21.22666509 844.17731563 -24 838 C-26.28641871 831.40419952 -28.51480829 823.98958785 -27 817 C-20.75664524 807.9277802 -8.4921498 804.78550288 1.5 801.25 C2.68634033 800.82952393 3.87268066 800.40904785 5.0949707 799.97583008 C28.82336846 791.69990838 53.24696309 785.31249793 78 781 C76.95748961 774.49854306 75.1044028 769.73927567 71.3125 764.375 C70.64093872 763.39744751 70.64093872 763.39744751 69.95581055 762.40014648 C67.16107676 758.41317997 64.23559772 754.8324705 60.64453125 751.52734375 C54.73043803 746.03468235 49.87439708 739.40042413 45 733 C45.44552253 742.97048692 46.83410728 752.27391571 49 762 C48.34 762 47.68 762 47 762 C32.9882506 737.88397248 21.36174707 711.26008621 15 684 C14.0925 684.165 13.185 684.33 12.25 684.5 C2.50538346 685.79928221 -5.78840827 686.02003018 -14 680 C-17.93009307 676.292984 -21.32165884 672.22063842 -24.5769043 667.91357422 C-31.10057627 659.43874457 -38.7180092 652.17058041 -46.37573242 644.74072266 C-64.88660007 626.73896029 -75.61597861 607.54786485 -76.04589844 581.18554688 C-76.08735034 577.93612209 -76.11067698 574.68715559 -76.125 571.4375 C-76.12983398 570.39682373 -76.13466797 569.35614746 -76.13964844 568.28393555 C-76.09587274 548.43009458 -76.09587274 548.43009458 -73 541 C-83.79620246 551.84304064 -91.88009145 564.49672516 -99 578 C-99.33 578 -99.66 578 -100 578 C-100.0278024 576.37510429 -100.0467446 574.75005717 -100.0625 573.125 C-100.07410156 572.22007812 -100.08570313 571.31515625 -100.09765625 570.3828125 C-100.02035934 567.70524756 -99.81396329 565.16081684 -99.51367188 562.50585938 C-98.9355991 556.84419857 -98.77880684 551.21103574 -98.68359375 545.5234375 C-98.6524221 543.94654648 -98.6524221 543.94654648 -98.62062073 542.33779907 C-98.55582764 539.01692523 -98.49657072 535.69598005 -98.4375 532.375 C-98.39424779 530.10806587 -98.3506315 527.84113866 -98.30664062 525.57421875 C-98.20021951 520.0495521 -98.09832976 514.52481628 -98 509 C-98.58067482 509.6349514 -98.58067482 509.6349514 -99.17308044 510.2827301 C-100.96377044 512.23561829 -102.76112057 514.18226045 -104.55859375 516.12890625 C-105.47143127 517.12742615 -105.47143127 517.12742615 -106.40270996 518.14611816 C-115.58060405 528.05872954 -126.85399818 536.96425676 -139 543 C-139.66 542.67 -140.32 542.34 -141 542 C-140.48050781 541.21238281 -139.96101562 540.42476562 -139.42578125 539.61328125 C-128.46017864 522.48586128 -124.01150563 503.80142173 -120.9375 483.9375 C-116.57878151 456.11989796 -116.57878151 456.11989796 -112 445 C-133.8853996 458.47049671 -155.35579277 474.80861994 -166 499 C-166.33 499 -166.66 499 -167 499 C-169.70341678 441.22698219 -139.1125242 377.20488177 -113 327 C-116.92782691 327 -119.81422687 328.58101986 -123.3125 330.1875 C-143.27266413 339.04528348 -164.80902195 345.11383972 -186.82421875 345.1328125 C-187.53351028 345.13376923 -188.24280182 345.13472595 -188.97358704 345.13571167 C-190.45838511 345.13638649 -191.94318626 345.13458143 -193.42797852 345.13037109 C-195.69228739 345.12498862 -197.95640011 345.13035216 -200.22070312 345.13671875 C-201.67187543 345.13605831 -203.12304762 345.13477786 -204.57421875 345.1328125 C-205.87963623 345.13168457 -207.18505371 345.13055664 -208.5300293 345.12939453 C-211.49680737 345.01876396 -214.12330025 344.69476835 -217 344 C-217 343.34 -217 342.68 -217 342 C-215.824375 341.79375 -214.64875 341.5875 -213.4375 341.375 C-181.14006667 334.02315097 -161.78736686 308.56495508 -145 282 C-142.40300455 277.72860854 -139.85560488 273.42864104 -137.3125 269.125 C-131.69924368 259.64043309 -125.80158548 250.66741116 -119 242 C-118.32582031 241.10410156 -117.65164063 240.20820313 -116.95703125 239.28515625 C-101.8653957 219.8732846 -82.11727417 202.05863708 -60 191 C-60.84385254 190.95174072 -61.68770508 190.90348145 -62.55712891 190.85375977 C-95.79004964 188.74551345 -128.78957493 181.1013951 -156 161 C-153.86150452 160.31262645 -152.4493044 159.88152483 -150.24731445 160.4621582 C-131.21540792 165.01699689 -107.35419329 160.54577332 -89 155 C-88.33726074 154.8045459 -87.67452148 154.6090918 -86.99169922 154.40771484 C-69.67241834 149.23452988 -53.3886783 141.4632517 -37.05078125 133.82421875 C-19.62590485 125.68884203 -2.36906667 117.81922195 16 112 C17.07483643 111.65557861 17.07483643 111.65557861 18.17138672 111.30419922 C28.88101127 107.94902722 39.91043594 106.48611417 51 105 C51 104.34 51 103.68 51 103 C49.51322339 101.53587878 49.51322339 101.53587878 47.5625 100 C20.90305583 77.12900316 3.47168623 38.84897898 0.1875 4.1875 C0.10748026 2.79256137 0.03598233 1.39676849 0 0 Z " fill="#000000" transform="translate(418,55)"/>
<path d="M0 0 C0.66 0 1.32 0 2 0 C3.20250158 2.24307028 4.3869162 4.4928791 5.5625 6.75 C6.07586914 7.70132813 6.07586914 7.70132813 6.59960938 8.671875 C9.06382218 13.45095438 9.06382218 13.45095438 8.71484375 16.453125 C8.47894531 16.96359375 8.24304688 17.4740625 8 18 C7.01 18 6.02 18 5 18 C5.04600342 18.76666992 5.09200684 19.53333984 5.1394043 20.32324219 C5.33862233 23.79810999 5.51332286 27.27379088 5.6875 30.75 C5.76033203 31.9565625 5.83316406 33.163125 5.90820312 34.40625 C5.96298828 35.56640625 6.01777344 36.7265625 6.07421875 37.921875 C6.13182373 38.99018555 6.18942871 40.05849609 6.2487793 41.15917969 C5.96680163 44.37909349 5.16237099 45.65722549 3 48 C3.01047363 46.98687744 3.02094727 45.97375488 3.03173828 44.92993164 C3.06822441 41.13358156 3.09100349 37.33724664 3.10986328 33.54077148 C3.11985617 31.90467717 3.13345507 30.26860041 3.15087891 28.63256836 C3.31467598 16.18319962 3.31467598 16.18319962 1 4 C0.66141075 2.66799166 0.3267141 1.33497071 0 0 Z " fill="#AEADAE" transform="translate(903,597)"/>
<path d="M0 0 C6.86515862 -0.26404456 13.25846717 0.74158054 20 2 C19.04867187 2.18369141 19.04867187 2.18369141 18.078125 2.37109375 C15.80283433 2.80696091 15.80283433 2.80696091 14.75 5.0625 C14.5025 5.701875 14.255 6.34125 14 7 C9.25981099 5.16508812 4.63586749 3.08058541 0 1 C0 0.67 0 0.34 0 0 Z " fill="#1B1B1B" transform="translate(599,73)"/>
<path d="M0 0 C0.66 0.33 1.32 0.66 2 1 C-4.33333333 7.33333333 -10.66666667 13.66666667 -17 20 C-17.99 19.67 -18.98 19.34 -20 19 C-17.60838068 16.57913227 -15.21096558 14.16408349 -12.8125 11.75 C-12.13896484 11.06808594 -11.46542969 10.38617187 -10.77148438 9.68359375 C-7.32936311 6.22468165 -3.90714016 2.94363181 0 0 Z " fill="#B6B5B5" transform="translate(285,513)"/>
<path d="M0 0 C4.54109672 4.26587874 8.24735246 9.03612328 12 14 C11.67 14.66 11.34 15.32 11 16 C0.45259327 7.55824616 0.45259327 7.55824616 -0.125 2.9375 C-0.063125 1.4834375 -0.063125 1.4834375 0 0 Z " fill="#1E1D1E" transform="translate(949,259)"/>
<path d="M0 0 C0.66 3.96 1.32 7.92 2 12 C1.34 12 0.68 12 0 12 C-1.98 8.04 -3.96 4.08 -6 0 C-4 -1 -4 -1 0 0 Z " fill="#1D1C1D" transform="translate(465,805)"/>
<path d="M0 0 C0.50471197 1.76949612 1.00360685 3.54065223 1.5 5.3125 C1.7784375 6.29863281 2.056875 7.28476562 2.34375 8.30078125 C3 11 3 11 3 14 C2.34 14 1.68 14 1 14 C-1.32019297 10.80973467 -3.34643078 7.58273331 -5 4 C-1.125 0 -1.125 0 0 0 Z " fill="#202020" transform="translate(946,602)"/>
<path d="M0 0 C0.33 0 0.66 0 1 0 C2.15316726 6.34241995 2.09507063 12.56688704 2 19 C-0.34914492 16.65085508 -0.73140357 15.04320554 -1.625 11.875 C-1.88539063 10.96492187 -2.14578125 10.05484375 -2.4140625 9.1171875 C-2.60742188 8.41851563 -2.80078125 7.71984375 -3 7 C-2.34 6.67 -1.68 6.34 -1 6 C-0.34227572 2.97065509 -0.34227572 2.97065509 0 0 Z " fill="#252425" transform="translate(994,505)"/>
<path d="M0 0 C0.33 0.66 0.66 1.32 1 2 C-1.17343173 8.40590406 -1.17343173 8.40590406 -4 10.4375 C-6 11 -6 11 -9 11 C-6.36113346 6.7973607 -3.63559661 3.43361902 0 0 Z " fill="#B2B2B1" transform="translate(345,595)"/>
<path d="M0 0 C2.95929119 2.75520215 5.03681826 5.46627288 7 9 C2.43545749 8.45660208 -0.9728176 7.20536179 -5 5 C-5 4.67 -5 4.34 -5 4 C-3.35 4 -1.7 4 0 4 C0 2.68 0 1.36 0 0 Z " fill="#2B2B2B" transform="translate(983,567)"/>
<path d="M0 0 C5 5 5 5 7 8 C5.68 8.33 4.36 8.66 3 9 C2.67 10.98 2.34 12.96 2 15 C1.67 15 1.34 15 1 15 C0.67 10.05 0.34 5.1 0 0 Z " fill="#AFAEAE" transform="translate(462,787)"/>
<path d="M0 0 C0.33 0 0.66 0 1 0 C1.25502274 4.08215031 1.47452986 8.16545691 1.6875 12.25 C1.76033203 13.40886719 1.83316406 14.56773437 1.90820312 15.76171875 C1.96298828 16.87675781 2.01777344 17.99179687 2.07421875 19.140625 C2.13182373 20.16704102 2.18942871 21.19345703 2.2487793 22.25097656 C2 25 2 25 -1 29 C-0.67 19.43 -0.34 9.86 0 0 Z " fill="#918F91" transform="translate(907,616)"/>
<path d="M0 0 C0 0.66 0 1.32 0 2 C-3.96 3.32 -7.92 4.64 -12 6 C-12.99 5.01 -13.98 4.02 -15 3 C-15 2.67 -15 2.34 -15 2 C-13.06302033 1.66365624 -11.12539514 1.33102835 -9.1875 1 C-7.56908203 0.7215625 -7.56908203 0.7215625 -5.91796875 0.4375 C-3 0 -3 0 0 0 Z " fill="#262626" transform="translate(870,132)"/>
<path d="M0 0 C2.97 0.495 2.97 0.495 6 1 C4.35 4.3 2.7 7.6 1 11 C0.67 11 0.34 11 0 11 C0 7.37 0 3.74 0 0 Z " fill="#1F1E1E" transform="translate(318,622)"/>
<path d="M0 0 C0.33 0 0.66 0 1 0 C1 5.28 1 10.56 1 16 C0.67 16 0.34 16 0 16 C-0.33 13.03 -0.66 10.06 -1 7 C-1.99 7 -2.98 7 -4 7 C-2.68 4.69 -1.36 2.38 0 0 Z " fill="#A5A4A5" transform="translate(798,777)"/>
<path d="M0 0 C7.48291572 6.15034169 7.48291572 6.15034169 10 10 C6.4628562 9.43867066 5.00738321 8.30442253 2.75 5.5625 C1.96882812 4.63630859 1.96882812 4.63630859 1.171875 3.69140625 C0 2 0 2 0 0 Z " fill="#A7A6A6" transform="translate(945,545)"/>
<path d="M0 0 C1.98 1.65 3.96 3.3 6 5 C5.34 6.65 4.68 8.3 4 10 C1 8 1 8 0.48828125 6.0546875 C0.32552083 4.03645833 0.16276042 2.01822917 0 0 Z " fill="#B5B4B4" transform="translate(961,470)"/>
<path d="M0 0 C0.66 0 1.32 0 2 0 C0.80100302 3.0831351 -0.47700477 6.06279492 -2 9 C-2.99 9 -3.98 9 -5 9 C-3.7580393 5.56072421 -2.44259716 2.74792181 0 0 Z " fill="#B3B2B2" transform="translate(331,612)"/>
<path d="M0 0 C-0.75 5.75 -0.75 5.75 -3 8 C-3.33 7.34 -3.66 6.68 -4 6 C-3.67 5.34 -3.34 4.68 -3 4 C-4.65 4.33 -6.3 4.66 -8 5 C-3.22727273 0 -3.22727273 0 0 0 Z " fill="#A2A3A3" transform="translate(306,500)"/>
<path d="M0 0 C0.33 0.99 0.66 1.98 1 3 C0.00390625 4.82421875 0.00390625 4.82421875 -1.4375 6.6875 C-1.91058594 7.31011719 -2.38367188 7.93273437 -2.87109375 8.57421875 C-3.24363281 9.04472656 -3.61617187 9.51523437 -4 10 C-4.99 9.67 -5.98 9.34 -7 9 C-4.69 6.03 -2.38 3.06 0 0 Z " fill="#ADACAD" transform="translate(793,784)"/>
<path d="M0 0 C2.52588702 2.36292656 3.88820837 3.66462511 5 7 C2.69 6.34 0.38 5.68 -2 5 C-1.34 3.35 -0.68 1.7 0 0 Z " fill="#AAAAAA" transform="translate(651,118)"/>
<path d="M0 0 C0.99 0.33 1.98 0.66 3 1 C2.01 1.33 1.02 1.66 0 2 C-0.71727778 3.64551962 -1.38325228 5.31422289 -2 7 C-2.66 7.66 -3.32 8.32 -4 9 C-4.33 8.01 -4.66 7.02 -5 6 C-3.59554165 3.7363436 -1.8032087 1.9791315 0 0 Z " fill="#B1B0B0" transform="translate(783,797)"/>
<path d="M0 0 C0.33 2.31 0.66 4.62 1 7 C0.34 6.67 -0.32 6.34 -1 6 C-1.625 3.4375 -1.625 3.4375 -2 1 C-3.98 1 -5.96 1 -8 1 C-4.93251126 -0.86240388 -3.40254489 -1.2151946 0 0 Z " fill="#A1A0A0" transform="translate(434,739)"/>
<path d="M0 0 C3.3 0 6.6 0 10 0 C10 0.33 10 0.66 10 1 C8.35 1 6.7 1 5 1 C5.66 2.65 6.32 4.3 7 6 C5.83054208 5.19152271 4.66449539 4.37810888 3.5 3.5625 C2.8503125 3.11003906 2.200625 2.65757812 1.53125 2.19140625 C1.0259375 1.79824219 0.520625 1.40507812 0 1 C0 0.67 0 0.34 0 0 Z " fill="#ACAAAA" transform="translate(895,247)"/>
<path d="M0 0 C0.66 0 1.32 0 2 0 C2.66 2.31 3.32 4.62 4 7 C3.01 7 2.02 7 1 7 C0.67 7.66 0.34 8.32 0 9 C0 6.03 0 3.06 0 0 Z " fill="#9D9D9D" transform="translate(928,585)"/>
<path d="M0 0 C-2.49505962 2.49505962 -3.67328888 2.35948376 -7.125 2.625 C-8.03507812 2.69976562 -8.94515625 2.77453125 -9.8828125 2.8515625 C-10.93082031 2.92503906 -10.93082031 2.92503906 -12 3 C-11.34 2.67 -10.68 2.34 -10 2 C-9.67 1.34 -9.34 0.68 -9 0 C-5.44307323 -0.85056945 -3.50729422 -1.16909807 0 0 Z " fill="#999999" transform="translate(471,159)"/>
<path d="M0 0 C2.64 0 5.28 0 8 0 C8 1.32 8 2.64 8 4 C2.25 2.25 2.25 2.25 0 0 Z " fill="#303130" transform="translate(599,73)"/>
<path d="M0 0 C1 4 1 4 1 7 C-0.98 7.66 -2.96 8.32 -5 9 C-3.35 6.03 -1.7 3.06 0 0 Z " fill="#262525" transform="translate(282,589)"/>
<path d="M0 0 C2.97 0 5.94 0 9 0 C7.68 0.33 6.36 0.66 5 1 C4.67 1.99 4.34 2.98 4 4 C2.68 3.34 1.36 2.68 0 2 C0 1.34 0 0.68 0 0 Z " fill="#101010" transform="translate(610,75)"/>
<path d="M0 0 C0.33 0 0.66 0 1 0 C1 1.98 1 3.96 1 6 C-0.98 6 -2.96 6 -5 6 C-3.35830472 3.97945196 -1.69088222 1.97956942 0 0 Z " fill="#AAAAAA" transform="translate(318,565)"/>
<path d="M0 0 C2.31 1.98 4.62 3.96 7 6 C6.34 6.66 5.68 7.32 5 8 C0 2.25 0 2.25 0 0 Z " fill="#B2B1AF" transform="translate(469,796)"/>
<path d="M0 0 C4.875 2.75 4.875 2.75 6 5 C3.03 4.505 3.03 4.505 0 4 C-0.33 3.01 -0.66 2.02 -1 1 C-0.67 0.67 -0.34 0.34 0 0 Z " fill="#191919" transform="translate(984,571)"/>
</svg>
